<?xml version="1.0" standalone="no"?>
<!DOCTYPE svg PUBLIC "-//W3C//DTD SVG 1.1//EN" "http://www.w3.org/Graphics/SVG/1.1/DTD/svg11.dtd" >
<svg xmlns="http://www.w3.org/2000/svg">
<metadata>Generated by IcoMoon</metadata>
<defs>
<font id="icomoon" horiz-adv-x="1024">
<font-face units-per-em="1024" ascent="960" descent="-64" />
<missing-glyph horiz-adv-x="1024" />
<glyph unicode="&#x20;" horiz-adv-x="512" d="" />
<glyph unicode="&#xe900;" glyph-name="user-car" d="M681.083 347.894h-335.99c-14.403 0-24.003-9.62-24.003-24.003 0-14.418 9.6-24.003 24.003-24.003h335.995c14.403 0 24.003 9.58 24.003 24.003-0.005 14.382-9.605 24.003-24.008 24.003v0zM882.683 539.873l-62.403 218.414c-12.001 40.786-48 69.586-91.203 69.586h-431.985c-43.203 0-81.603-28.8-91.203-69.586l-62.397-218.414c-62.403-7.199-110.403-57.6-110.403-119.982v-216.018c0-26.399 21.601-48 48-48v-48c0-26.399 21.601-48 48-48h96c26.399 0 48 21.601 48 48v48h479.995v-48c0-26.399 21.601-48 48-48h96c26.399 0 48 21.601 48 48v48c26.399 0 48 21.601 48 48v216.018c0 62.382-48 112.783-110.403 119.982v0zM251.494 743.875c4.803 21.601 24.003 36.014 45.599 36.014h431.995c21.601 0 40.801-14.413 45.599-36.014l57.6-204.001h-638.392l57.6 204.001zM153.093 491.873c40.801 0 72.003-31.201 72.003-71.982 0-40.822-31.201-72.003-72.003-72.003s-72.003 31.181-72.003 72.003c0 40.786 31.201 71.982 72.003 71.982v0zM225.091 107.873h-96v48h96v-48zM897.085 107.873h-96v48h96v-48zM945.085 203.873h-863.995v120.018c19.19-14.418 45.599-24.003 72.003-24.003 67.2 0 120.003 52.782 120.003 120.003 0 26.378-9.6 52.782-24.003 71.982h527.995c-14.403-19.2-24.003-45.599-24.003-71.982 0-67.22 52.803-120.003 120.003-120.003 26.399 0 52.803 9.58 72.003 24.003v-120.018h-0.005zM873.083 347.894c-40.801 0-72.003 31.181-72.003 72.003 0 40.781 31.201 71.982 72.003 71.982s72.003-31.201 72.003-71.982c0-40.822-31.201-72.003-72.003-72.003v0z" />
<glyph unicode="&#xe901;" glyph-name="user-order" d="M890.716 737.055c-1.362 38.932-28.462 73.236-66.611 81.142-16.051 3.313-33.050 2.483-49.638 2.688-16.333 0.184-29.102-13.21-28.902-29.123 0.225-15.949 13.123-28.477 29.578-28.626 9.62-0.087 19.246 0.118 28.872-0.087 9.364-0.169 17.029-4.065 22.779-11.51 5.059-6.528 6.052-14.162 6.052-22.149-0.036-151.997-0.036-304.015-0.036-456.013 0-58.153 0.036-116.311-0.020-174.474-0.015-20.060-11.914-32.246-31.493-32.246-191.928-0.031-383.831-0.031-575.749 0-19.021 0-31.227 12.293-31.227 31.278-0.015 211.364-0.015 422.728 0 634.086 0 18.749 12.14 30.956 30.751 31.109 9.641 0.067 19.261-0.241 28.887 0.087 14.853 0.512 26.619 12.595 27.3 27.607 0.681 14.674-9.774 28.682-24.177 29.665-15.13 1.019-30.664 1.633-45.594-0.527-45.189-6.508-75.090-42.281-75.105-87.977-0.015-105.692 0-211.359 0-317.046 0-106.092-0.051-212.168 0.020-318.264 0.031-49.372 38.42-87.936 87.598-87.962 193.085-0.061 386.212-0.031 579.333-0.031 12.611 0 24.822 2.263 36.106 7.818 34.319 16.86 51.338 44.78 51.338 82.862 0.067 210.36 0.036 420.716 0.036 631.076 0 2.212-0.015 4.424-0.097 6.615zM400.62 705.162c37.683-0.015 75.397 0 113.101 0v0.051c38.897 0 77.798-0.338 116.69 0.102 32.512 0.374 56.991 25.723 57.16 58.255 0.102 18.652 0.046 37.299 0.015 55.951-0.087 34.524-25.006 59.484-59.617 59.515-76.201 0.051-152.412 0.051-228.623 0-35.005-0.015-59.653-24.735-59.791-59.873-0.087-17.649-0.051-35.292-0.020-52.936 0.072-36.705 24.381-61.030 61.087-61.066zM397.947 820.608h231.409v-57.155h-231.409v57.155zM421.033 244.746c-26.86 0-53.719-0.031-80.579 0.015-9.62 0.026-17.715-3.359-23.629-10.967-7.296-9.38-8.499-19.866-3.4-30.531 5.202-10.926 14.316-16.389 26.506-16.404 57.728-0.015 115.482 0 173.194 0 36.5 0 72.98 0 109.46 0 21.847 0 43.689-0.128 65.556 0.056 16.046 0.128 28.457 12.948 28.39 28.887-0.051 16.891-12.785 28.928-30.874 28.928-88.218 0.031-176.435 0.015-264.627 0.015zM413.891 372.669c18.14-18.15 36.224-36.342 54.451-54.415 10.051-9.958 24.53-11.715 35.855-4.675 6.287 3.917 22.011 20.838 26.045 24.873 40.079 40.151 80.21 80.256 120.33 120.356 39.982 39.972 79.944 79.933 119.88 119.936 2.55 2.55 5.012 5.217 7.086 8.141 7.265 10.286 6.344 25.175-1.956 34.596-12.134 13.804-30.602 13.942-44.416 0.154-80.742-80.707-161.464-161.428-242.15-242.171-20.388 20.454-40.837 40.852-61.256 61.271v-0.015c-27.203 27.218-54.4 54.472-81.664 81.638-9.385 9.329-21.893 11.679-33.116 6.508-18.601-8.535-22.728-32.404-7.926-47.293 36.214-36.393 72.556-72.622 108.836-108.902z" />
<glyph unicode="&#xe902;" glyph-name="user-address" d="M511.375 716.283c-86.323 0-156.605-68.818-156.605-153.508 0-84.695 70.282-153.508 156.605-153.508 86.339 0 156.503 68.813 156.503 153.508 0 84.69-70.164 153.508-156.503 153.508v0zM511.375 460.672c-57.39 0-104.161 45.752-104.161 102.103 0 56.248 46.771 102.098 104.161 102.098 57.395 0 104.059-45.85 104.059-102.098 0.118-56.253-46.664-102.103-104.059-102.103v0zM511.171 8.673c-13.798 0-29.051 6.067-46.459 18.647-13.701 9.902-29.051 23.798-45.542 41.518-32.456 34.836-67.901 82.637-99.845 134.554-35.543 57.8-65.516 118.589-86.748 175.882-25.042 67.697-37.806 129.505-37.806 183.501 0 84.49 32.86 163.912 92.616 223.683 59.771 59.756 139.197 92.616 223.683 92.616s163.912-32.86 223.688-92.616c59.756-59.776 92.611-139.197 92.611-223.683 0-53.996-12.78-115.804-38.011-183.598-21.135-57.19-51.226-117.98-86.856-175.78-31.944-51.82-67.389-99.62-99.835-134.456-16.389-17.608-31.647-31.621-45.343-41.508-17.408-12.692-32.451-18.76-46.152-18.76v0zM511.171 826.532c-70.467 0-136.709-27.407-186.491-77.266-49.859-49.879-77.266-116.132-77.266-186.491 0-88.909 41.513-208.22 113.956-327.434 29.558-48.62 62.336-93.553 92.411-126.618 32.978-36.157 52.035-46.382 57.288-47.498 5.253 1.244 24.31 11.643 57.288 48.010 30.075 33.178 62.956 78.198 92.411 126.735 72.643 119.199 114.156 238.305 114.156 326.81 0 70.467-27.402 136.709-77.266 186.491-49.766 49.853-116.004 77.261-186.486 77.261v0z" />
<glyph unicode="&#xe903;" glyph-name="user-gift" d="M884.285 681.001h-113.029c13.594 18.033 21.601 40.468 21.601 64.676 0 59.402-48.394 107.796-107.771 107.796-59.924 0-110.228-47.478-134.804-75.796-14.95-17.121-27.817-35.482-37.668-53.243-9.876 17.761-22.723 36.081-37.637 53.243-24.607 28.278-74.885 75.796-134.835 75.796-59.402 0-107.771-48.394-107.771-107.796 0-24.207 8.049-46.643 21.601-64.676h-113.039c-11.884 0-37.924-5.56-37.924-37.924v-96.599c0-46.807 43.121-37.924 43.121-37.924v-393.231c0-56.003 18.924-81.044 81.044-81.044h570.87c46.413 0 81.044 23.030 81.044 81.044v393.231h5.197c11.914 0 37.924 11.566 37.924 37.924v96.599c0.328 25.912-26.010 37.924-37.924 37.924v0zM582.764 749.394c33.695 38.758 71.035 60.959 102.318 60.959 35.615 0 64.65-29.005 64.65-64.676 0-35.64-29.036-64.676-64.65-64.676h-145.669c7.45 19.072 22.564 44.513 43.351 68.393v0zM577.26 77.389h-129.326v560.492h129.326v-560.492zM275.487 745.677c0 35.676 29.010 64.676 64.65 64.676 31.314 0 68.628-22.2 102.318-60.959 20.797-23.885 35.876-49.321 43.351-68.393h-145.669c-35.645 0-64.65 29.036-64.65 64.676v0zM146.13 637.88h258.683v-86.205h-258.683v86.205zM189.251 115.318v393.236h215.562v-431.16h-177.638c-30.367-0.005-37.924 12.559-37.924 37.924v0zM835.973 115.318c0-24.73-11.996-37.929-37.929-37.929h-177.664v431.165h215.593v-393.236zM879.089 551.675h-258.708v86.205h258.708v-86.205z" />
<glyph unicode="&#xe904;" glyph-name="user-invite" d="M347.238 84.762l187.203 127.053-362.716 492.319 175.514-619.372zM679.24 84.762v203.433l-539.515 528.855 539.515-732.288zM700.677 324.618l186.015 126.264-629.565 308.649 443.551-434.913zM113.362 848.456c7.562 6.118 16.963 9.277 26.399 9.277 6.318 0 12.641-1.398 18.555-4.28l730.68-349.88c31.693-15.923 39.199-34.56 39.060-49.802-0.092-14.351-5.683-28.124-17.705-36.285l-189.752-128.804c0-0.159 0.148-0.374 0.148-0.532v-203.387c0-17.669-11.597-33.28-28.713-38.717-4.229-1.362-8.545-1.997-12.795-1.997-13.051 0-25.692 6.083-33.608 16.87l-86.866 117.868-187.848-127.524c-42.158-34.176-59.996 9.917-63.596 22.62l-207.565 732.298c-4.393 15.473 0.968 32.036 13.604 42.276z" />
<glyph unicode="&#xe905;" glyph-name="user-tob" d="M787.855 417.654c58.179 28.416 98.304 87.583 98.304 155.832 0 95.831-79.068 173.793-176.261 173.793-7.67 0-15.206-0.532-22.625-1.485 9.846-11.986 18.442-25.006 25.651-38.835 73.641-1.597 133.069-60.79 133.069-133.463 0-73.697-61.056-133.652-136.095-133.652l70.856-62.188c98.243-1.080 177.838-79.872 177.838-176.625v-12.303c0-4.884-1.060-7.127-4.746-10.025-6.113-4.813-17.362-8.945-32.522-11.94-15.483-3.067-34.145-4.762-54.656-5.74-0.466-15.867-4.004-29.307-10.22-40.653 81.772 2.811 142.31 15.048 142.31 68.362v12.303c0.005 116.541-93.793 211.871-210.903 216.617v0zM598.508 425.902c66.442 32.451 112.251 99.999 112.251 177.94 0 109.425-90.286 198.436-201.252 198.436-110.976 0-201.252-89.011-201.252-198.436 0-78.582 46.551-146.637 113.874-178.765-127.749-11.54-228.157-117.668-228.157-246.528v-14.039c-0.010-36.664 25.329-59.587 77.445-70.072 44.549-8.96 104.438-8.96 173.798-8.96h142.843c134.835 0 251.269 0 251.269 79.017v14.054c0.005 133.079-107.11 241.93-240.819 247.352v0zM354.104 603.837c0 84.127 69.719 152.571 155.402 152.571s155.387-68.444 155.387-152.571c0-84.157-69.704-152.602-155.387-152.602s-155.402 68.449-155.402 152.602v0zM793.467 164.49c0-5.555-1.213-8.136-5.417-11.433-6.984-5.504-19.825-10.209-37.13-13.64-40.796-8.074-100.086-8.074-162.862-8.074h-142.828c-66.918 0-124.682 0-164.767 8.049-16.676 3.359-28.954 7.951-35.507 13.271-3.876 3.164-5.135 6.036-5.135 11.832v14.054c0 111.247 92.15 201.738 205.394 201.738h142.843c113.26 0 205.404-90.496 205.404-201.738v-14.060h0.005zM101.74 166.758c-15.16 2.995-26.404 7.127-32.522 11.94-3.681 2.883-4.746 5.14-4.746 10.025v12.303c0 96.753 79.606 175.544 177.843 176.625l70.856 62.188c-75.039 0-136.095 59.96-136.095 133.642 0 72.689 59.428 131.881 133.069 133.473 7.224 13.834 15.805 26.854 25.646 38.835-7.419 0.952-14.95 1.485-22.62 1.485-97.188 0-176.261-77.967-176.261-173.793 0-68.25 40.12-127.416 98.309-155.832-117.11-4.751-210.908-100.076-210.908-216.627v-12.303c0-53.309 60.549-65.551 142.321-68.362-6.231 11.351-9.769 24.791-10.235 40.653-20.506 0.993-39.168 2.688-54.656 5.75v0z" />
<glyph unicode="&#xe906;" glyph-name="user-setup" d="M517.494 34.273c-3.697 0-7.388 0.097-11.151 0.384-25.134 1.587-49.377 8.079-72.253 19.231-8.817 4.239-14.095 13.317-13.522 23.091l3.456 55.762c-24.366 6.687-47.488 15.964-69.135 27.791l-50.816-44.749c-7.26-6.497-17.792-7.89-26.542-3.569-22.83 11.249-42.834 26.496-59.423 45.153-16.543 18.893-29.087 40.576-37.504 64.722-3.215 9.18-0.532 19.42 6.784 25.902l41.969 37.023c-12.401 21.775-22.159 44.815-29.133 68.562l-67.743 4.239c-9.661 0.625-18.079 7.009-21.197 16.195-8.177 24.141-11.535 49.004-10.051 73.948 1.587 25.006 8.033 49.183 19.139 72.223 4.224 8.847 12.687 14.080 23.122 13.548l55.823-3.456c6.687 24.366 16.015 47.503 27.843 69.135l-44.815 50.77c-6.431 7.311-7.839 17.792-3.507 26.547 11.3 22.973 26.547 42.977 45.199 59.423 18.703 16.497 40.433 29.087 64.558 37.504 9.139 3.169 19.425 0.527 25.923-6.83l36.972-41.871c21.873 12.401 44.815 22.159 68.562 29.087l4.239 67.743c0.625 9.713 7.009 18.13 16.241 21.248 24.1 8.177 48.753 11.791 73.999 9.999 24.914-1.536 49.137-7.987 72.161-19.139 8.801-4.224 14.095-13.358 13.522-23.122l-3.456-55.726c24.32-6.687 47.488-16.015 69.228-27.843l50.719 44.718c7.316 6.4 17.838 7.839 26.547 3.507 22.881-11.249 42.88-26.435 59.423-45.107 16.64-19.041 29.184-40.765 37.453-64.753 3.169-9.18 0.532-19.42-6.83-25.871l-41.825-36.925c12.401-21.821 22.159-44.815 29.092-68.608l67.697-4.224c9.661-0.625 18.079-7.025 21.202-16.21 8.269-23.936 11.628-48.85 10.189-73.948-1.628-25.088-8.131-49.331-19.282-72.212-4.224-8.847-12.928-14.095-23.071-13.522l-55.777 3.476c-6.641-24.34-15.969-47.503-27.796-69.202l44.815-50.821c6.436-7.199 7.777-17.741 3.456-26.496-11.244-22.927-26.496-42.926-45.102-59.423-18.995-16.64-40.719-29.179-64.676-37.443-9.068-3.277-19.405-0.589-25.902 6.769l-37.023 41.969c-21.775-12.401-44.769-22.159-68.562-29.076l-4.239-67.712c-0.625-9.759-7.009-18.109-16.241-21.202-20.383-7.050-41.554-10.609-62.756-10.609v0zM469.612 91.008c12.897-4.721 26.158-7.501 39.711-8.366 12.703-0.865 26.977 0.287 40.212 3.267l4.321 68.076c0.671 10.639 8.177 19.538 18.56 21.985 31.201 7.214 60.959 19.999 88.417 38.036 9.999 6.482 23.265 4.803 31.15-4.239l39.091-44.319c12.416 5.806 23.762 13.215 34.002 22.159 10.051 8.94 18.801 19.231 26.112 30.909l-45.005 51.026c-7.025 7.967-7.987 19.615-2.401 28.641 16.865 27.069 28.846 57.119 35.523 89.487 2.463 11.73 13.471 19.236 25.057 19.041l58.895-3.661c4.721 12.897 7.506 26.204 8.417 39.777 0.814 13.455-0.333 26.977-3.308 40.192l-68.081 4.321c-10.639 0.671-19.523 8.177-21.934 18.56-7.199 31.299-19.999 61.056-37.985 88.417-6.574 9.999-4.751 23.327 4.239 31.217l44.227 39.040c-5.76 12.355-13.169 23.747-22.159 34.033-8.945 9.999-19.236 18.755-30.863 26.061l-51.057-45.010c-7.987-7.009-19.615-8.033-28.657-2.35-26.982 16.881-57.119 28.851-89.492 35.538-11.73 2.447-19.907 13.123-19.133 25.042l3.712 58.941c-12.897 4.623-26.158 7.409-39.613 8.274-13.665 0.865-27.023-0.287-40.305-3.313l-4.296-68.096c-0.671-10.573-8.223-19.523-18.611-21.934-31.15-7.153-60.908-19.937-88.417-37.97-9.999-6.543-23.235-4.721-31.165 4.224l-39.040 44.242c-12.401-5.821-23.793-13.23-33.889-22.175-10.097-8.878-18.898-19.231-26.158-30.817l45.056-51.057c7.025-7.982 7.936-19.661 2.304-28.657-16.835-26.926-28.8-57.027-35.584-89.472-2.401-11.74-13.020-19.809-25.042-19.041l-58.895 3.645c-4.675-12.882-7.46-26.209-8.32-39.762-0.819-13.425 0.287-26.88 3.313-40.192l68.127-4.239c10.624-0.676 19.523-8.274 21.934-18.611 7.199-31.247 19.999-61.056 37.985-88.366 6.574-10.051 4.803-23.363-4.193-31.252l-44.319-39.091c5.806-12.508 13.215-23.854 22.159-34.002 8.945-10.045 19.282-18.893 30.863-26.112l51.052 45.010c7.982 7.020 19.661 8.079 28.657 2.35 26.88-16.722 56.975-28.749 89.487-35.471 11.679-2.463 19.809-13.138 19.041-25.062l-3.702-58.875zM510.438 292.132c-83.661 0-151.741 68.081-151.741 151.793 0 83.666 68.081 151.747 151.741 151.747 83.697 0 151.777-68.081 151.777-151.747 0-83.712-68.081-151.793-151.777-151.793v0zM510.438 537.876c-51.789 0-93.952-42.127-93.952-93.952 0-51.794 42.158-93.952 93.952-93.952 51.773 0 93.937 42.158 93.937 93.952 0 51.773-42.158 93.952-93.937 93.952v0z" />
<glyph unicode="&#xe907;" glyph-name="weather-sun" d="M189.611 106.223c-4.011 0-7.953 2.116-10.291 5.888l-18.807 31.010c-1.69 2.748-2.185 6.178-1.434 9.199 0.819 3.209 2.697 5.905 5.444 7.646l30.515 19.166c5.632 3.567 13.039 1.809 16.538-4.011l18.807-30.891c1.707-2.884 2.202-6.195 1.502-9.267-0.751-3.209-2.697-5.888-5.376-7.578l-30.515-19.166c-1.997-1.382-4.198-1.997-6.383-1.997v0 0zM170.633 18.688c-3.994 0-7.97 2.065-10.274 5.888l-18.807 31.010c-1.707 2.816-2.27 6.195-1.502 9.216 0.734 3.311 2.679 6.025 5.359 7.629l30.532 19.302c2.679 1.502 5.939 2.202 9.131 1.314 3.14-0.751 5.769-2.765 7.509-5.444l18.807-31.010c3.447-5.82 1.758-13.329-3.942-16.913l-30.566-19.098c-1.86-1.263-4.045-1.894-6.246-1.894v0 0zM632.627 586.496c16.913-3.209 32.785-5.001 47.974-9.267 81.852-23.074 147.934-103.1 138.871-206.404-7.492-85.299-78.729-159.403-166.793-170.837-8.38-1.092-16.879-1.707-25.327-1.707-144.196-0.102-288.41-1.041-432.623 0.273-80.572 0.734-140.322 39.595-173.978 112.401-32.939 71.168-23.433 140.237 25.139 202.035 34.167 43.469 80.213 67.038 135.68 71.031 7.031 0.495 9.523 3.14 10.052 10.24 9.182 123.375 111.599 212.907 235.11 205.773 105.131-6.093 194.611-92.57 204.066-197.171 0.478-5.564 1.229-11.127 1.826-16.367zM411.136 249.532c26.146 0 52.292-0.102 78.455 0.034 49.459 0.205 99.089-1.894 148.309 1.502 60.74 4.233 102.861 37.905 122.658 95.334 19.763 57.361 4.881 108.066-38.724 149.641-27.87 26.607-62.327 38.741-100.659 37.069-35.362-1.57-42.803 11.639-40.943 41.438 0.478 7.731 0.068 15.565-0.768 23.262-8.243 76.902-71.595 141.466-146.569 149.538-81.886 8.841-156.177-38.195-181.862-114.859-7.885-23.501-8.823-47.701-8.653-72.175 0.119-16.862-10.428-26.726-27.273-26.965-8.482-0.102-16.964 0.068-25.429-0.273-92.894-3.874-157.338-96.939-128.273-185.242 19.661-59.767 73.66-98.133 138.786-98.27 70.315-0.137 140.629-0.034 210.944-0.034zM834.236 643.499c48.623-2.594 91.136-18.432 125.559-51.558 56.593-54.46 76.151-121.139 54.067-196.403-22.084-75.298-74.564-120.405-151.637-135.97-10.633-2.167-21.726-2.526-32.649-2.662-15.787-0.171-26.812 10.667-26.88 25.242-0.068 14.404 11.076 25.361 26.556 25.941 53.146 1.894 94.413 25.037 121.634 70.707 53.385 89.668-8.038 205.329-112.196 212.173-9.506 0.631-19.046 0.734-28.587 0.939-18.21 0.358-27.426 9.267-27.341 27.563 0.154 33.161-3.533 65.399-19.166 95.505-42.923 82.637-142.507 115.405-225.877 74.035-3.789-1.86-7.595-3.959-11.639-4.966-12.305-3.072-24.986 3.294-29.85 14.507-5.342 12.271-1.143 26.197 10.923 33.075 24.542 13.961 51.098 22.374 79.053 25.566 93.321 10.735 179.558-34.833 223.437-118.067 15.531-29.525 22.989-61.321 24.593-95.625zM426.923 47.599c2.133 8.329 5.308 20.565 8.448 32.836 7.031 27.307 13.824 54.665 21.214 81.869 3.823 14.097 15.582 21.641 28.467 19.507 15.804-2.628 25.463-16.094 21.589-31.727-9.421-37.973-19.2-75.861-29.303-113.664-3.584-13.397-16.043-20.599-29.423-18.398-12.407 2.014-20.924 12.339-20.992 29.577zM562.142 47.667c4.028 16.128 8.943 35.925 13.978 55.706 4.762 18.807 9.626 37.564 14.524 56.303 4.352 16.725 16.777 25.105 31.898 21.572 15.053-3.499 22.682-16.725 18.5-33.57-9.097-36.608-18.5-73.097-28.041-109.568-3.703-14.199-15.667-22.135-29.303-20.173-12.988 1.826-21.641 12.203-21.555 29.73zM349.116 180.036c-4.42-15.77-8.533-30.737-12.8-45.636-6.315-22.101-6.366-22.101 15.77-30.071 24.747-8.926 25.412-11.298 8.892-32.068-16.060-20.173-32-40.465-48.469-60.297-2.679-3.226-7.834-4.471-11.827-6.605-0.427 4.506-2.185 9.335-1.058 13.397 4.591 16.674 9.643 33.195 15.36 49.493 2.611 7.475 0.427 10.803-6.281 13.67-8.755 3.738-17.118 8.329-25.668 12.561-7.356 3.635-8.909 9.404-4.045 15.531 19.302 24.371 38.895 48.503 58.675 72.499 1.587 1.929 5.342 2.765 8.090 2.765 1.161 0.017 2.321-3.516 3.362-5.239z" />
<glyph unicode="&#xe908;" glyph-name="lipei" d="M228.879 140.196v628.762h-69.033c-27.587 0-50.176-22.456-50.176-49.905v-678.579c0-27.448 22.589-49.905 50.176-49.905h545.382c27.628 0 50.217 22.456 50.217 49.905v43.469h-469.96c-31.14 0.005-56.607 25.293-56.607 56.253v0zM865.874 912.169h-545.423c-27.592 0-50.176-22.431-50.176-49.884v-678.6c0-27.412 22.584-49.884 50.176-49.884h545.423c27.628 0 50.15 22.477 50.15 49.884v678.605c0 27.448-22.518 49.879-50.15 49.879v0zM608.205 327.654h-202.435c-20.792 0-37.627 16.748-37.627 37.396 0 20.664 16.84 37.407 37.627 37.407h202.435c20.792 0 37.622-16.742 37.622-37.407 0-20.644-16.829-37.396-37.622-37.396v0zM608.205 487.168h-202.435c-20.792 0-37.627 16.742-37.627 37.443 0 20.654 16.84 37.396 37.627 37.396h202.435c20.792 0 37.622-16.742 37.622-37.396 0-20.705-16.829-37.443-37.622-37.443v0zM780.554 327.654h-41.037c-20.797 0-37.627 16.748-37.627 37.396 0 20.664 16.829 37.407 37.627 37.407h41.037c20.792 0 37.622-16.742 37.622-37.407 0-20.644-16.829-37.396-37.622-37.396v0zM780.554 487.168h-41.037c-20.797 0-37.627 16.742-37.627 37.443 0 20.654 16.829 37.396 37.627 37.396h41.037c20.792 0 37.622-16.742 37.622-37.396 0-20.705-16.829-37.443-37.622-37.443v0zM780.554 643.497h-374.784c-20.792 0-37.627 16.783-37.627 37.443s16.84 37.443 37.627 37.443h374.784c20.792 0 37.622-16.783 37.622-37.443s-16.829-37.443-37.622-37.443v0z" />
<glyph unicode="&#xe909;" glyph-name="chuangxinxian" d="M550.298 864.788v5.704c0 21.151-17.111 38.303-38.298 38.303-21.151 0-38.303-17.152-38.303-38.303v-5.704c-236.006-19.528-421.499-217.088-421.499-458.097 0-2.98 0.159-5.878 0.215-8.801h8.023c19.302 50.253 72.765 86.461 135.931 86.461 63.14 0 116.649-36.204 135.936-86.456h5.012c32.543 43.305 80.865 73.769 136.387 83.461l-0.205-361.856c0-31.406-25.482-56.888-56.888-56.888s-56.888 25.487-56.888 56.888v40.115h-0.072c-0.497 21.079-17.644 38.001-38.804 38.001-21.197 0-38.344-16.922-38.835-38.001h-0.102v-38.313c0-74.086 60.042-134.098 134.103-134.098 74.086 0 134.098 60.017 134.098 134.098l0.189 359.695c54.661-10.086 102.2-40.335 134.349-83.098h8.346c19.267 50.248 72.765 86.456 135.905 86.456 63.16 0 116.669-36.204 135.941-86.456h6.748c0.061 2.918 0.21 5.821 0.21 8.801 0.005 241.004-185.487 438.595-421.499 458.086z" />
<glyph unicode="&#xe90a;" glyph-name="add-car" horiz-adv-x="1321" d="M296.256 361.232c-19.79 0-39.514-8.195-53.538-22.147-14.039-13.967-22.162-33.686-22.162-53.555 0-19.79 8.195-39.506 22.162-53.538 14.032-14.032 33.748-22.155 53.538-22.155s39.515 8.123 53.54 22.155c14.032 14.032 22.155 33.748 22.155 53.538 0 19.805-8.195 39.515-22.155 53.555-14.024 14.024-33.75 22.147-53.54 22.147zM398.75 712.624c1.991 10.042 14.175 20.156 24.591 20.156h363.454c10.408 0 22.6-10.042 24.584-20.084l16.777-80.531c24.521 10.537 44.813 18.61 71.618 23.908l-15.118 72.207c-9.451 47.416-49.276 79.18-97.79 79.18h-363.526c-48.522 0-88.346-31.764-97.792-79.108l-34.641-174.362c-5.097-25.404-0.95-46.983 14.556-65.89 15.657-19.127 36.050-27.99 62.266-27.99h271.148c15.613 29.184 34.856 50.612 57.119 74.752h-328.267c-2.142 0-3.401 0.215-3.846 0.445-0.072 0.366-0.215 1.329 0.151 3.169l34.714 174.147zM987.395 9.703c-144.63 0-262.254 117.639-262.254 262.263 0 144.622 117.624 262.219 262.254 262.219 144.668 0 262.214-117.597 262.214-262.219 0-144.624-117.545-262.263-262.214-262.263zM987.395 604.201c-183.153 0-332.242-149.017-332.242-332.242 0-183.183 149.089-332.148 332.242-332.148 183.183 0 332.15 148.965 332.15 332.155 0 183.218-148.967 332.235-332.15 332.235zM311.396 125.128l0.589-40.693v-1.029c-0.151-28.947-23.78-52.439-52.726-52.439-28.949 0-52.511 23.406-52.734 52.36v1.18l0.596 40.693h-60.045c-20.458 0-38.472 7.685-50.881 21.645-12.335 13.881-17.797 32.714-15.44 52.951l21.42 180.638c4.212 35.452 32.12 68.391 67.866 80.058l21.343 6.936 75.479 324.191c11.005 46.013 62.108 86.34 109.371 86.34h457.586c47.272 0 98.381-40.327 109.38-86.34l29.451-128.443c4.45 0.151 8.914 0.259 13.399 0.259 24.168 0 47.817-2.251 70.77-6.505l-35.41 153.371c-19.876 82.941-102.212 147.859-187.437 147.859h-457.667c-85.218 0-167.568-64.911-187.437-147.859l-65.43-282.383c-54.431-26.216-93.939-79.237-100.874-138.104l-21.422-180.645c-5.169-43.273 7.311-84.399 35.080-115.653 24.519-27.611 58.047-44.311 95.641-47.846 16.389-54.806 67.349-94.91 127.466-94.91 59.822 0 110.558 39.745 127.249 94.169h286.538c-18.029 24.692-33.203 51.586-45.034 80.201h-316.686zM989.996 70.5h-5.294c-12.146 0-22.083 9.937-22.083 22.083v358.846c0 12.146 9.937 22.083 22.083 22.083h5.294c12.146 0 22.083-9.937 22.083-22.083v-358.846c0-12.146-9.937-22.083-22.083-22.083zM1188.855 274.654v-5.294c0-12.146-9.937-22.083-22.083-22.083h-358.846c-12.146 0-22.083 9.937-22.083 22.083v5.294c0 12.146 9.937 22.083 22.083 22.083h358.846c12.146 0 22.083-9.937 22.083-22.083z" />
<glyph unicode="&#xe90b;" glyph-name="index-btn" horiz-adv-x="992" d="M669.609 725.371c0 18.135-14.715 32.849-32.854 32.849h-462.978c-18.14 0-32.854-14.715-32.854-32.849 0-18.141 14.715-32.856 32.854-32.856h463.041c18.14 0 32.791 14.715 32.791 32.856zM636.755 187.045c-82.572 0-149.739 67.16-149.739 149.738 0 82.574 67.167 149.739 149.739 149.739 82.577 0 149.739-67.165 149.739-149.739 0.062-82.577-67.162-149.738-149.739-149.738zM975.87 177.087l-136.102 88.156c7.93 22.388 12.43 46.422 12.43 71.539 0 118.786-96.654 215.444-215.444 215.444-118.786 0-215.444-96.658-215.444-215.444 0-118.79 96.658-215.443 215.444-215.443 70.147 0 132.362 33.865 171.75 85.872l131.599-85.306c5.516-3.553 11.733-5.26 17.82-5.26 10.78 0 21.31 5.26 27.591 14.966 9.958 15.284 5.579 35.641-9.645 45.474zM140.86 394.050c0-18.136 14.715-32.851 32.854-32.851h204.978c2.158 22.898 7.292 44.966 15.029 65.705h-219.944c-18.203 0-32.917-14.715-32.917-32.854zM594.517 592.563h-420.74c-18.14 0-32.854-14.715-32.854-32.856 0-18.135 14.715-32.849 32.854-32.849h286.921c36.464 33.803 82.636 57.271 133.819 65.705zM744.764 83.22c0-33.232-27.019-60.314-60.251-60.314h-558.495c-33.232 0-60.251 27.019-60.251 60.314v749.521c0 33.232 27.019 60.252 60.251 60.252h558.495c33.232 0 60.251-27.020 60.251-60.252v-260.347c24.102-11.099 46.234-25.752 65.705-43.315v303.662c0 69.446-56.511 126.020-126.019 126.020h-558.431c-69.445 0-126.019-56.511-126.019-126.020v-749.584c0-69.445 56.511-126.019 126.019-126.019h558.495c69.445 0 126.019 56.511 126.019 126.019v61.331c-19.471-17.569-41.603-32.221-65.705-43.321v-17.946h-0.063z" />
<glyph unicode="&#xe90c;" glyph-name="kefu" d="M944.691 483.912c-13.732 49.239-44.201 84.992-89.815 107.837-3.564 1.787-7.004 22.497-8.131 29.798-11.075 71.864-41.595 134.436-92.964 185.733-80.701 80.584-178.58 113.203-291.487 97.818-79.124-10.778-145.751-47.094-199.741-105.8-51.226-55.69-80.404-121.569-87.511-197.002-0.568-6.047-2.898-9.119-8.351-11.837-66.447-33.132-103.424-105.943-91.264-179.041 11.464-68.936 64.148-123.756 132.664-138.056 11.766-2.452 23.593-3.942 36.362-2.98 0 2.729 0.169 200.284-0.077 296.704-0.108 41.364 7.818 80.804 26.24 117.919 55.040 110.899 178.924 168.202 300.293 141.215 116.321-25.856 208.44-127.928 207.309-259.86-0.799-93.266-0.118-186.542-0.282-279.808-0.010-5.238-0.978-10.711-2.678-15.672-11.617-33.915-29.061-64.65-51.512-92.57-43.387-53.955-99.159-90.819-162.386-117.299-1.853-0.778-5.007-0.015-6.902 1.116-7.322 4.388-15.017 6.927-23.619 6.845-12.954-0.118-25.912 0.005-38.866-0.041-22.395-0.082-40.274-18.253-40.269-40.883 0-22.569 17.935-40.74 40.335-40.812 13.322-0.051 26.65-0.046 39.972 0 17.915 0.051 33.971 12.001 38.569 29.42 1.208 4.562 3.41 6.666 7.491 8.387 41.979 17.638 81.224 40.003 116.669 68.736 57.62 46.705 99.451 104.422 121.528 175.683 1.469 4.721 4.582 5.176 8.069 6.077 90.993 23.526 145.618 117.78 120.351 208.374z" />
<glyph unicode="&#xe90d;" glyph-name="check-bm-false" d="M486.4 796.16c-197.929 0-358.4-160.471-358.4-358.4s160.471-358.4 358.4-358.4 358.4 160.471 358.4 358.4-160.471 358.4-358.4 358.4zM486.4 111.964c-179.937 0-325.816 145.859-325.816 325.796s145.879 325.816 325.816 325.816 325.796-145.879 325.796-325.816-145.859-325.796-325.796-325.796z" />
<glyph unicode="&#xe90e;" glyph-name="car" d="M1020.283 491.981c-3.543 24.125-22.682 41.513-44.052 53.217-4.168 2.14-8.387 4.209-12.698 6.38 11.305 7.834 22.057 14.572 31.969 22.723 12.012 9.912 10.547 27.013-2.755 34.396-8.714 4.997-17.111 2.519-25.651-3.113-18.391-11.725-36.977-22.395-56.709-34.079-2.294 5.632-4.301 8.806-5.745 12.022-24.269 52.941-48.937 106.179-73.779 159.078-20.634 44.052-55.501 66.765-104.448 67.031-142.1 0.072-284.426-0.276-426.772 0.041-51.825 0.051-88.32-22.764-109.998-69.888-23.788-51.159-47.626-102.287-71.69-153.416-1.782-3.881-3.594-7.485-5.714-11.725-3.185 1.126-5.693 1.823-7.844 3.205-17.357 10.291-34.714 20.572-51.763 31.222-10.312 6.42-21.996 5.315-29.194-3.86-7.393-8.899-6.349-21.309 2.929-29.143 7.086-6.001 14.909-10.988 22.651-16.323 2.888-2.12 6.083-3.922 7.137-4.618-12.421-10.322-25.907-18.801-35.471-30.515-8.212-10.322-14.193-20.982-17.388-37.253-2.56-13.855-1.454-137.032 1.372-154.819 6.001-38.298 25.58-68.188 56.76-90.9 8.602-6.38 21.32-10.66 25.569-19.21 4.311-9.165 0.799-21.996 1.055-33.321 0.020-58.982 46.868-106.465 105.185-106.486 58.532-0.041 105.738 47.473 105.779 106.414 0.010 8.591 0 17.213 0 26.307h424.55c0-9.871-0.020-18.504 0-27.628 0.031-50.34 36.291-94.351 85.146-102.973 51.272-9.308 100.966 18.442 119.398 66.683 8.458 21.463 6.359 44.104 6.359 66.714 0 6.441 2.079 9.38 7.854 12.268 33.905 16.927 56.812 43.131 69.499 78.080 3.471 9.216 2.826 9.769 5.612 19.057 6.431 27.668 5.069 147.692 2.847 164.434v0zM231.485 728.381c13.476 28.078 37.632 39.352 67.85 39.352 126.74-0.287 253.737-0.256 380.232-0.276 18.483 0 36.966 0.635 55.419-0.748 25.395-1.475 44.564-14.203 55.224-36.905 26.368-56.105 51.968-112.579 78.172-169.011 0.072-0.666 0.031-1.382 0.092-3.195-117.842-36.567-238.715-48.589-361.513-48.22-120.279 0.635-238.858 12.718-355.011 49.326 27.013 57.856 52.91 113.951 79.534 169.677v0zM221.604 131.697c-39.782-20.009-87.736 7.004-91.29 51.702-1.004 10.66-0.276 21.381-0.276 32.696h125.317c6.011-38.236-1.464-67.523-33.751-84.398v0zM858.44 132.362c-39.782-21.32-88.73 5.632-92.365 50.473-1.27 10.568-0.532 21.197-0.532 33.229h125.645c5.519-37.683-0.778-66.601-32.748-83.702v0zM976.957 348.846c-2.775-52.541-43.93-89.528-96.451-90.040-122.921 0-246.333 0-369.254 0-121.795 0-243.569 1.311-365.588-0.154-47.933-0.696-100.844 34.079-100.864 99.4 0 37.038-0.051 74.619 0.020 112.2 0.297 22.374 9.247 37.652 27.607 50.074 17.398 11.776 49.428 5.673 76.073-3.881 64.543-22.764 131.973-34.488 199.834-40.151 58.245-4.925 116.808-8.827 175.36-8.827 114.586 0 227.625 11.704 338.278 44.032 13.619 4.209 27.689 8.858 41.247 13.476 14.213 4.936 42.609-2.816 53.873-11.356 15.012-11.766 20.562-23.777 20.603-42.639 0.082-40.632 1.362-81.613-0.737-122.132v0zM672.44 386.417c-53.33 0-107.203 0-160.788 0-53.688 0-107.633 0-161.577-0.010-4.608 0-9.247-0.594-13.814-1.423-9.605-2.724-15.657-11.203-15.616-20.541 0.297-9.226 6.021-17.603 15.268-19.794 4.649-1.362 9.902-1.454 14.858-1.454 107.192-0.020 214.385-0.020 321.065-0.020 19.743 0 29.778 7.168 30.341 21.309 0.051 14.141-10.547 21.924-29.737 21.934v0zM169.431 446.484c-34.816 0-63.181-27.986-63.252-62.751-0.307-34.898 28.047-63.898 63.181-63.99 34.806-0.614 63.631 28.396 63.918 63.252 0.031 35.379-28.355 63.478-63.846 63.488v0zM847.821 446.484c-35.492 0-63.99-28.713-63.867-63.56 0.594-34.775 29.071-63.212 63.785-63.232 34.888-0.020 63.263 28.436 63.263 63.949-0.031 34.898-27.771 62.843-63.181 62.843v0z" />
<glyph unicode="&#xe90f;" glyph-name="person" d="M877.343 155.72c-6.021 4.362-11.981 9.441-18.084 13.65-31.805 19.005-63.652 38.676-96.195 57.651-45.722 27.576-92.867 55.050-138.465 83.425-11.264 6.922-21.524 16.435-30.198 26.706-13.64 14.541-11.981 39.475 1.71 53.299 23.265 24.904 42.25 52.46 55.89 83.845 40.55 97.147 37.059 195.635 5.284 293.652-19.026 59.832-62.925 96.338-124.805 110.582-43.756 10.291-87.204 10.568-131.052 2.396-68.823-13.128-114.862-52.726-138.025-119.337-16.343-46.94-19.374-95.949-19.825-145.357-0.881-84.705 24.535-159.57 81.705-223.16 18.944-21.422 18.954-43.776-2.15-62.781-14.572-13.015-30.126-25.784-46.909-36.045-45.548-26.839-92.396-52.531-137.585-80.056-34.806-21.402-68.731-43.889-102.298-67.092-26.45-18.084-31.867-45.599-29.256-75.674 0.379-3.482 0.881-6.912 1.321-10.383 3.809-27.494 34.376-54.231 62.3-54.231 129.884 0 259.789 0 390.021 0 91.556 0 182.794 0.143 274.739 0.031 30.208-0.031 61.061-0.707 91.269-0.799 28.344-0.133 53.135 5.13 73.912 23.224 4.321 3.533 9.431 8.663 10.342 13.814 12.831 55.818 7.834 81.705-33.649 112.64zM841.236 53.361c-126.454 0-252.877 0-379.648 0-125.594 0-251.146 0.031-377.037-0.051-12.595 0-25.498 2.611-29.307 14.623-4.27 13.773-6.451 30.208 8.602 40.55 30.976 21.463 61.921 42.998 94.157 62.74 45.619 27.546 93.256 53.166 138.885 80.773 20.183 12.083 38.666 27.505 56.351 42.967 21.903 18.985 32.205 43.1 31.846 73.196-0.072 21.473-4.813 36.987-20.716 53.146-48.538 48.23-71.373 108.452-73.544 176.415-1.638 43.018-0.358 86.036 9.984 128.174 17.193 70.083 58.020 106.148 129.853 111.77 25.324 2.13 51.149 1.26 76.114-2.14 56.76-7.26 96.266-38.246 111.688-93.87 18.964-69.14 22.456-139.602 4.413-209.695-12.012-46.459-36.096-86.436-71.352-119.173-8.653-8.53-11.305-17.152-12.943-29.204-5.243-49.070 17.091-84.204 55.777-108.421 53.391-34.396 108.503-65.362 162.673-98.826 33.556-20.664 66.294-42.916 99.697-64.44 10.291-6.871 14.561-16.435 13.814-29.307-0.092-20.654-8.54-29.225-29.307-29.225zM1017.498 645.028c0-15.503 0-30.188 0-45.998-86.753 0-172.022 0-258.765 0 0 15.473 0 30.116 0 45.998 85.975 0 171.909 0 258.765 0zM806.062 433.428c0 15.114 0 30.095 0 45.599 70.502 0 140.175 0 210.749 0 0-15.063 0-29.686 0-45.599-69.704 0-139.377 0-210.749 0zM1016.812 266.598c-46.582 0-92.969 0-140.247 0 0 14.725 0 29.368 0 45.558 46.52 0 93.635 0 140.247 0 0-15.442 0-30.085 0-45.558z" />
<glyph unicode="&#xe910;" glyph-name="city" d="M1023.252 104.11c0-103.7-257.198-157.87-511.334-157.87-254.034 0-511.16 54.17-511.16 157.87 0 92.027 198.052 130.345 283.218 142.633 12.605 1.7 24.371-6.953 26.245-19.773 1.874-12.575-6.953-24.33-19.692-26.112-177.377-25.477-243.436-72.786-243.436-96.748 0-45.445 181.125-111.544 464.835-111.544 283.884 0 464.916 66.099 464.916 111.544 0 24.136-66.734 71.721-245.893 97.024-12.575 1.874-21.391 13.537-19.692 26.204 1.874 12.728 13.629 21.463 26.276 19.773 85.883-12.145 285.716-50.442 285.716-143.002v0zM413.921 654.469c0 54.118 44.012 98.13 97.997 98.13 54.118 0 98.13-44.012 98.13-98.13 0-53.985-44.012-97.997-98.13-97.997-53.985 0-97.997 44.012-97.997 97.997v0zM656.384 654.469c0 79.688-64.768 144.456-144.456 144.456-79.596 0-144.374-64.768-144.374-144.456 0-79.565 64.768-144.333 144.374-144.333 79.677 0 144.456 64.778 144.456 144.333v0zM511.918 903.393c142.592 0 258.673-115.907 258.673-258.499 0-197.56-200.356-419.441-258.888-480.113-58.583 59.515-258.324 277.033-258.324 480.113 0 142.582 116.040 258.499 258.54 258.499v0zM496.148 115.159l15.954-14.971 15.841 15.227c11.745 11.233 288.983 279.48 288.983 529.469-0.010 168.079-136.765 304.876-305.009 304.876-168.069 0-304.865-136.796-304.865-304.865 0-256.768 277.34-518.697 289.096-529.736v0z" />
<glyph unicode="&#xe911;" glyph-name="call" d="M397.916 652.728l-107.704-109.599c56.084-124.518 175.032-263.219 313.047-309.842l93.133 92.856c0 0 220.805-38.513 270.459-62.659 42.977-20.828 57.221-67.041 50.432-124.16-7.25-61.276-87.542-196.434-232.294-197.919-144.732-1.567-357.816 107.52-510.515 268.411-152.678 160.87-288.85 364.82-267.069 537.999 21.78 173.148 172.657 204.134 210.381 206.909 38.164 2.775 68.465-8.397 91.484-36.925 29.604-36.68 88.648-265.073 88.648-265.073v0 0zM275.61 882.012c-17.971 23.511-48.814 27.433-79.647 20.142-27.433-6.431-127.273-47.862-141.435-158.792-15.698-123.412 76.339-332.186 241.469-491.96 165.13-159.734 324.25-252.969 460.984-264.161 136.765-11.121 203.438 109.24 213.146 145.449 9.8 36.127 1.69 72.663-17.91 87.235-25.057 18.514-240.189 57.016-240.189 57.016l-97.608-96.225c-160.461 52.265-311.542 198.4-375.849 376.975l106.588 107.377c0-0.020-51.589 193.475-69.55 216.945v0 0z" />
<glyph unicode="&#xe912;" glyph-name="home" d="M989.655 545.567l-405.176 377.636c-20.5 23.322-49.997 36.721-81.347 36.797-30.925 0-60.421-13.251-80.056-35.323l-390.221-378.86c-19.451-19.891-25.052-48.891-14.264-74.542 10.803-25.641 35.763-41.825 63.59-41.825h35.118v-385.198c0-59.796 47.8-108.252 107.551-108.252h156.401c21.755 0 41.068 17.551 41.068 39.25v318.802c0 10.9 7.178 20.7 18.079 20.7h139.474c10.9 0 19.2-9.8 19.2-20.7v-318.802c0-21.699 18.202-39.25 39.9-39.25h157.501c59.699 0 108.616 48.456 108.616 108.252v385.198h34.985c27.802 0 52.7 16.102 63.498 41.661 10.86 25.564 5.407 54.513-13.916 74.455v0 0zM949.156 494.177c-1.577-3.651-5.1-5.571-9.073-5.571h-94.106v-444.355c0-27.167-22.4-50.401-49.5-50.401h-157.599v319.923c0 21.775-17.5 39.475-39.301 39.475h-178.908c-21.76 0-40.76-17.7-40.76-39.475v-319.923h-155.054c-27.151 0-49.7 23.235-49.7 50.401v444.355h-92.989c-3.958 0-7.532 1.92-9.057 5.571-1.551 3.686-0.748 7.649 2.028 10.501l391.173 379.802c9.349 10.501 22.748 16.451 36.951 16.451 14.121-0.051 27.52-6.149 37.821-17.802l406.098-378.455c2.698-2.862 3.502-6.851 1.976-10.496v0 0z" />
<glyph unicode="&#xe913;" glyph-name="gps" d="M1023.555 102.282c0-103.69-257.172-157.875-511.319-157.875-254.024 0-511.165 54.185-511.165 157.875 0 92.027 198.057 130.34 283.218 142.607 12.631 1.741 24.392-6.953 26.255-19.727 1.864-12.616-6.953-24.376-19.697-26.143-177.382-25.482-243.436-72.806-243.436-96.737 0-45.46 181.11-111.529 464.819-111.529 283.863 0 464.947 66.068 464.947 111.529 0 24.12-66.734 71.731-245.883 97.019-12.616 1.864-21.437 13.532-19.697 26.179 1.864 12.733 13.624 21.458 26.271 19.784 85.862-12.145 285.686-50.452 285.686-142.981v0zM414.234 652.646c0 54.103 44.006 98.109 98.002 98.109 54.134 0 98.14-44.006 98.14-98.109 0-53.996-44.006-98.002-98.14-98.002-53.996 0-98.002 44.006-98.002 98.002v0zM656.722 652.646c0 79.683-64.773 144.456-144.486 144.456-79.585 0-144.358-64.773-144.358-144.456 0-79.57 64.773-144.343 144.358-144.343 79.708-0.005 144.486 64.773 144.486 144.343v0zM512.236 901.565c142.618 0 258.668-115.927 258.668-258.514 0-197.565-200.33-419.441-258.877-480.108-58.593 59.494-258.324 277.038-258.324 480.108 0.005 142.587 116.040 258.514 258.534 258.514v0zM496.461 113.347l15.964-14.986 15.836 15.206c11.756 11.254 288.988 279.491 288.988 529.485 0 168.069-136.791 304.876-305.014 304.876-168.069 0-304.876-136.806-304.876-304.876 0-256.763 277.34-518.707 289.101-529.705v0z" />
<glyph unicode="&#xe914;" glyph-name="choose-xz" d="M319.693 392.366c-0.655-0.85-1.331-1.751-1.628-2.806l-51.395-188.385c-2.99-10.967 0.072-22.784 8.202-31.119 6.072-5.929 14.070-9.185 22.6-9.185 2.816 0 5.632 0.338 8.417 1.065l187.044 51.005c0.297 0 0.451-0.256 0.666-0.256 2.15 0 4.27 0.788 5.857 2.427l500.163 500.081c14.858 14.868 22.999 35.144 22.999 57.18 0 24.975-10.578 49.951-29.143 68.465l-47.237 47.309c-18.524 18.555-43.54 29.164-68.495 29.164-22.036 0-42.322-8.141-57.201-22.989l-500.101-500.224c-0.522-0.471-0.369-1.178-0.748-1.731zM950.682 764.17l-49.684-49.644-80.538 81.818 48.978 48.978c7.741 7.782 22.743 6.646 31.642-2.273l47.258-47.309c4.936-4.925 7.762-11.489 7.762-17.961-0.041-5.325-1.915-10.148-5.417-13.609zM408.648 384.512l360.909 360.94 80.579-81.879-360.243-360.223-81.244 81.162zM342.897 238.182l26.071 95.734 69.571-69.571-95.642-26.163zM982.364 565.996c-18.924 0-34.458-15.401-34.54-34.58v-466.258c0-24.453-19.845-44.298-44.339-44.298h-788.726c-24.453 0-44.38 19.845-44.38 44.298v761.016c0 24.474 19.937 44.349 44.38 44.349h507.976c19.036 0 34.499 15.462 34.499 34.509 0 19.005-15.462 34.488-34.499 34.488h-513.239c-59.607 0-108.124-48.476-108.124-108.134v-771.512c0-59.638 48.517-108.093 108.124-108.093h799.201c59.658 0 108.145 48.445 108.145 108.093v471.757c-0.061 18.964-15.565 34.365-34.478 34.365z" />
<glyph unicode="&#xe915;" glyph-name="tuijian" d="M984.73 646.994c-25.815 61.030-62.771 115.845-109.824 162.898-47.063 47.063-101.857 84.009-162.898 109.824-63.212 26.737-130.324 40.284-199.496 40.284-69.181 0-136.305-13.558-199.496-40.294-61.030-25.815-115.845-62.761-162.898-109.824-47.063-47.053-84.009-101.857-109.824-162.898-26.737-63.191-40.294-130.304-40.294-199.485 0-69.171 13.558-136.294 40.294-199.506 25.815-61.030 62.761-115.835 109.824-162.888 47.053-47.063 101.857-83.999 162.888-109.834 63.201-26.726 130.324-40.284 199.506-40.284 69.171 0 136.294 13.548 199.496 40.284 61.030 25.825 115.845 62.771 162.898 109.834s83.999 101.857 109.824 162.888c26.726 63.222 40.294 130.345 40.294 199.506 0 69.181-13.568 136.294-40.294 199.496v0zM831.805 128.205c-85.289-85.299-198.676-132.27-319.293-132.27s-234.025 46.971-319.304 132.27c-85.289 85.279-132.26 198.666-132.26 319.293 0 120.617 46.971 234.015 132.26 319.304 85.279 85.289 198.687 132.26 319.304 132.26s234.015-46.971 319.304-132.27c85.289-85.289 132.26-198.676 132.26-319.304-0.010-120.617-46.971-234.004-132.27-319.283v0zM744.294 369.101h-119.132c-2.212 1.843-4.342 3.41-6.359 4.71-2.038 1.29-4.157 2.857-6.369 4.71 16.968 6.267 33.505 12.739 49.592 19.384 16.056 6.646 30.546 12.749 43.5 18.289 9.595 4.065 16.794 8.96 21.596 14.694 4.792 5.724 7.199 11.715 7.199 18.002 0 8.868-4.71 16.712-14.131 23.542s-23.91 10.25-43.489 10.25h-193.925c-10.711 0-18.289-2.406-22.712-7.199-4.424-4.813-6.646-11.459-6.646-19.948 0-8.499 2.12-15.514 6.38-21.064 4.25-5.54 11.919-8.315 22.999-8.315h109.148c-9.605-2.959-18.012-5.734-25.211-8.315-7.209-2.591-12.278-4.25-15.227-4.977-12.196-4.076-19.497-10.26-21.903-18.565s0.092-16.722 7.485-25.201h-100.844c-11.827 0-19.855-2.867-24.105-8.602s-6.369-12.646-6.369-20.767c0-7.404 2.304-13.865 6.922-19.395 4.608-5.54 12.462-8.315 23.542-8.315h167.322c8.489-10.732 12.739-21.801 12.739-33.239 0-10.721-4.147-18.934-12.462-24.668-8.315-5.724-21.699-8.581-40.172-8.581-10.721 0-22.067 1.198-34.079 3.615-12.001 2.386-24.842 6.175-38.502 11.346-11.459 4.434-20.879 5.806-28.252 4.157-7.393-1.669-13.117-7.291-17.172-16.886-4.065-10.363-4.987-18.391-2.775-24.125 2.222-5.714 9.226-11.162 21.064-16.343 16.63-6.257 33.608-11.162 50.975-14.684 17.347-3.502 33.802-5.622 49.306-6.369 16.609-1.106 32.051 0.102 46.285 3.615 14.203 3.502 26.399 9.155 36.557 16.886 10.158 7.772 18.176 17.644 24.105 29.645 5.898 12.012 8.858 26.153 8.858 42.404 0 5.53-0.645 11.080-1.935 16.609-1.29 5.54-3.052 11.080-5.263 16.63h71.465c11.817 0 19.866 2.775 24.105 8.315 4.239 5.53 6.38 11.991 6.38 19.395 0 8.12-2.14 15.043-6.38 20.767s-12.288 8.591-24.105 8.591v0zM470.036 503.736h254.863c12.186 0 20.408 2.775 24.658 8.315 4.239 5.54 6.369 12.554 6.369 21.043s-1.935 15.524-5.816 21.064c-3.871 5.54-12.288 8.315-25.201 8.315h-223.293c4.434 11.817 5.069 20.685 1.935 26.593-3.144 5.908-10.076 10.527-20.777 13.855-9.974 2.949-18.104 2.314-24.381-1.935-6.287-4.25-12.564-12.831-18.831-25.764-1.116-2.212-2.222-4.434-3.328-6.646-1.106-2.222-2.212-4.26-3.318-6.093h-136.305c-12.564 0-20.777-2.775-24.658-8.315s-5.816-12.564-5.816-21.064 2.212-15.514 6.646-21.043c4.434-5.55 12.37-8.315 23.828-8.315h98.068c-32.143-41.748-72.028-79.237-119.685-112.476-12.933-9.236-20.869-17.818-23.818-25.774-2.959-7.946-1.485-16.148 4.434-24.658 6.277-9.226 13.937-14.121 22.999-14.684 9.042-0.553 20.029 3.799 32.963 13.025 3.697 2.58 7.383 5.161 11.090 7.762 3.686 2.57 7.383 5.345 11.080 8.305v-145.162c0-10.711 2.857-18.565 8.591-23.552 5.724-4.987 13.384-7.465 22.999-7.465 8.868 0 16.251 2.673 22.159 8.018 5.908 5.366 8.868 13.025 8.868 22.999v202.24c14.039 14.756 27.423 29.809 40.172 45.148 12.728 15.319 23.9 30.751 33.505 46.264v0zM742.625 676.598h-95.304v7.209c0 10.711-3.041 18.739-9.144 24.105-6.103 5.345-14.131 8.038-24.105 8.038s-18.002-2.683-24.105-8.038c-6.093-5.356-9.155-13.394-9.155-24.105v-7.209h-138.486v7.209c0 10.711-2.959 18.739-8.858 24.105-5.919 5.345-14.223 8.038-24.934 8.038-9.615 0-17.459-2.683-23.552-8.038s-9.144-13.394-9.144-24.105v-7.209h-93.645c-11.827 0-20.132-2.58-24.934-7.752-4.813-5.171-7.199-13.117-7.199-23.828 0-19.589 10.701-29.368 32.133-29.368h93.645v-10.527c0-10.342 3.041-18.371 9.144-24.105 6.093-5.734 13.937-8.591 23.552-8.591 10.711 0 19.016 2.857 24.934 8.591 5.898 5.724 8.858 13.752 8.858 24.105v10.527h138.496v-12.749c0-11.080 3.062-19.302 9.155-24.658 6.103-5.356 14.131-8.028 24.105-8.028 9.984 0 18.012 2.673 24.105 8.028s9.144 13.578 9.144 24.658v12.749h95.304c10.342 0 18.371 2.683 24.105 8.038 5.734 5.345 8.602 12.831 8.602 22.436 0 10.711-2.703 18.463-8.049 23.265-5.366 4.803-13.578 7.209-24.668 7.209v0z" />
<glyph unicode="&#xe916;" glyph-name="address" d="M511.98 960c-213.74 0-387.021-171.95-387.021-384s387.021-640 387.021-640 387.072 427.94 387.072 640c0 212.050-173.302 384-387.072 384v0zM511.98 319.939c-142.49 0-257.997 114.698-257.997 256.051s115.507 255.969 257.997 255.969c142.572 0.010 258.068-114.616 258.068-255.959 0-141.363-115.497-256.061-258.068-256.061v0zM511.98 703.949c-71.199 0-129.004-57.303-129.004-127.949s57.805-128 129.004-128c71.27 0 129.034 57.344 129.034 127.99s-57.764 127.959-129.034 127.959v0z" />
<glyph unicode="&#xe917;" glyph-name="change-password" d="M512 960c-282.752 0-512-229.184-512-512 0-282.752 229.248-512 512-512s512 229.248 512 512c0 282.816-229.248 512-512 512zM512-12.8c-254.080 0-460.736 206.72-460.736 460.8s206.656 460.8 460.736 460.8 460.736-206.656 460.736-460.8c0-254.080-206.656-460.8-460.736-460.8zM737.728 477.504h-314.752v219.456c2.24 12.608 17.6 75.84 99.776 75.84 83.008 0 101.824-67.52 104.64-79.936l0.128-142.912c0.128-13.76 11.328-24.96 25.152-24.96 13.76 0 25.024 11.2 25.024 25.024l-0.256 145.344-0.384 3.776c-7.232 42.88-48.896 123.84-154.24 123.84-105.984 0-144.192-78.656-149.568-120.896l-0.256-250.112c0-13.824 11.264-25.088 25.024-25.088 1.728 0 3.392 0.192 4.032 0.512h335.68c11.648 0 21.376-9.856 21.376-21.504v-179.392c0-11.648-9.728-21.44-21.376-21.44h-451.456c-11.648 0-21.376 9.792-21.376 21.44v179.456c0 11.648 9.728 21.504 21.376 21.504l15.36 0.256v1.024c9.92 3.456 17.024 12.928 17.024 23.68 0 10.688-7.040 20.16-17.024 23.552v1.536h-15.36c-39.36 0-71.488-32.128-71.488-71.552v-179.392c0-39.424 32.128-71.552 71.488-71.552h451.52c39.424 0 71.488 32.128 71.488 71.552v179.392c0 39.424-32.064 71.552-71.552 71.552zM537.024 273.344v88.512c0 13.76-11.2 25.024-25.024 25.024-13.76 0-25.024-11.264-25.024-25.024v-88.512c0-13.888 11.264-25.088 25.024-25.088 13.824 0.064 25.024 11.264 25.024 25.088z" />
<glyph unicode="&#xe918;" glyph-name="check-bm-true" d="M772.649 448c0-143.964-116.675-260.649-260.649-260.649-143.964 0-260.649 116.695-260.649 260.649s116.685 260.649 260.649 260.649c143.985 0 260.649-116.685 260.649-260.649zM512 857.6c-226.202 0-409.6-183.398-409.6-409.6 0-226.222 183.398-409.6 409.6-409.6 226.232 0 409.6 183.378 409.6 409.6 0 226.202-183.368 409.6-409.6 409.6zM512 75.663c-205.65 0-372.357 166.687-372.357 372.337s166.717 372.357 372.357 372.357c205.609 0 372.388-166.717 372.388-372.357 0-205.65-166.779-372.337-372.388-372.337z" />
<glyph unicode="&#xe919;" glyph-name="code" d="M864.64 181.888h-705.216c-53.632 0-97.344 43.648-97.344 97.152v337.92c0 53.568 43.712 97.216 97.344 97.216h705.216c53.568 0 97.28-43.648 97.28-97.216v-337.984c-0.064-53.504-43.712-97.088-97.28-97.088zM159.424 674.176c-31.616 0-57.408-25.6-57.408-57.216v-337.984c0-31.616 25.792-57.28 57.408-57.28h705.216c31.744 0 57.344 25.6 57.344 57.28v337.984c0 31.616-25.6 57.216-57.344 57.216h-705.216zM180.224 391.296c12.48-18.048 28.032-30.528 46.4-37.76 17.408-6.912 33.408-7.68 47.936-2.112 14.592 5.504 24.896 16.32 31.296 32.32 6.528 16.384 6.144 31.104-1.216 44.288-7.232 13.184-21.184 23.936-41.792 32.064-9.92 3.84-23.552 8.448-40.96 13.568l51.008 128.384 124.16-49.344-11.008-28.224-94.592 37.568-28.48-71.488c9.728-3.2 16.896-5.76 21.888-7.68 26.496-10.496 44.672-25.472 54.272-44.992 9.6-19.392 9.6-41.024 0.192-64.64-9.792-24.512-25.6-41.152-47.552-49.728-21.952-9.024-47.040-7.744-75.2 3.52-23.68 9.344-40.064 19.84-49.216 31.616l12.864 32.64zM391.808 361.28c20.288-11.84 42.048-16.128 65.344-12.8 18.56 2.496 32.64 9.088 42.176 19.648 9.6 10.688 13.248 23.552 11.2 38.848-4.672 34.176-31.36 47.872-80.192 41.216l-22.4-3.136-3.904 28.032 21.44 2.88c43.264 6.016 62.656 25.024 58.304 56.96-4.032 29.632-22.656 42.112-55.68 37.504-18.944-2.432-35.712-11.328-50.752-26.304l-4.416 32.128c16.32 12.608 36.224 20.544 59.712 23.872 22.912 3.008 42.24-0.384 57.664-10.496 15.552-10.176 24.64-24.768 27.392-43.84 4.8-35.328-10.048-60.352-44.48-75.392l0.064-0.832c19.648 0.64 35.904-4.032 48.896-14.208 12.992-10.112 20.48-23.744 22.848-41.28 3.328-24.064-2.624-44.8-18.112-62.144s-37.568-27.84-66.624-31.808c-25.472-3.52-46.656-1.6-63.744 5.888l-4.736 35.264zM706.496 590.080l-106.304-259.968h-35.648l100.992 241.6h-135.872v30.336h176.832v-11.968zM847.232 433.344l-31.744-13.888 28.16-64.64-30.592-13.44-28.352 64.768-116.096-50.944-8.96 20.352 38.336 212.352 36.48 15.936 70.016-159.552 31.744 14.016 11.008-24.96zM774.016 430.976l-45.952 104.256c-3.2 7.424-6.72 16-10.56 25.792l-0.64-0.128c0.384-4.8 0-12.544-1.152-23.296l-25.536-143.36 83.84 36.736z" />
<glyph unicode="&#xe91a;" glyph-name="phone" d="M743.652-2.565h-463.246c-34.476 0-62.478 28.12-62.478 62.657v775.755c0 34.597 28.001 62.717 62.478 62.717h463.246c34.417 0 62.418-28.12 62.418-62.717v-775.754c0-34.537-28.001-62.658-62.418-62.658zM280.407 867.866c-17.508 0-31.779-14.36-31.779-32.018v-775.754c0-17.628 14.27-31.958 31.779-31.958h463.246c17.508 0 31.718 14.33 31.718 31.958v775.754c0 17.658-14.211 32.018-31.718 32.018h-463.246zM512.029 64.59c-22.544 0-40.832 18.378-40.832 40.953s18.288 40.953 40.832 40.953 40.832-18.378 40.832-40.953-18.288-40.953-40.832-40.953zM512.029 115.795c-5.576 0-10.133-4.586-10.133-10.254 0-11.332 20.267-11.332 20.267 0 0 5.667-4.558 10.254-10.134 10.254zM731.9 176.115h-442.499c-8.455 0-15.35 6.865-15.35 15.35v621.059c0 8.484 6.895 15.35 15.35 15.35h442.5c8.455 0 15.35-6.865 15.35-15.35v-621.059c-0.001-8.484-6.896-15.35-15.351-15.35zM304.75 206.814h411.801v590.36h-411.801v-590.36z" />
<glyph unicode="&#xe91b;" glyph-name="suggestion" d="M510.775 931.393c-266.174 0-481.955-215.78-481.955-481.955s215.78-481.955 481.955-481.955 481.955 215.78 481.955 481.955-215.78 481.955-481.955 481.955zM510.775 35.128c-228.818 0-414.311 185.493-414.311 414.311s185.493 414.312 414.311 414.312 414.311-185.494 414.311-414.311-185.493-414.312-414.311-414.312zM299.392 261.629l179.355 35.868-143.487 143.487zM651.126 718.56c-13.207 13.207-34.633 13.207-47.841 0l-209.422-209.438c-13.224-13.207-13.224-34.616 0-47.823l119.575-119.593c13.207-13.207 34.616-13.207 47.823 0l209.439 209.439c13.207 13.207 13.207 34.633 0 47.841l-119.575 119.574zM544.352 407.657l-84.554 84.554 96.080 96.080 70.972-70.972 35.884 35.884-70.972 70.972 37.142 37.142 84.554-84.554-169.106-169.106z" />
<glyph unicode="&#xe91c;" glyph-name="dingdan-all" d="M537.429 654.474c53.437 0 96.754 44.64 96.754 99.73 0 30.991-13.709 58.678-35.23 76.978 1.841-6.278 3.14-12.808 3.14-19.712 0-37.644-29.596-68.146-66.104-68.146-36.517 0-66.115 30.502-66.115 68.146 0 5.515 0.8 10.802 2.010 15.929-19.132-18.219-31.203-44.22-31.203-73.194 0.001-55.091 43.318-99.731 96.748-99.731zM534.349 781.618c35.607 0 64.472 29.749 64.472 66.46 0 36.699-28.865 66.448-64.472 66.448-35.608 0-64.474-29.749-64.474-66.448 0-36.711 28.865-66.46 64.474-66.46zM78.809 185.594l155.81-62.177c-12.567 25.91-62.832 417.070-62.832 417.070l-92.978-354.893zM712.094-19.064l10.061 152.839-349.316-36.268 339.255-116.571zM817.639 822.851l-169.355-25.76c10.194-18.833 16.055-40.505 16.055-63.613 0-72.249-56.807-130.824-126.908-130.824-70.084 0-126.901 58.576-126.901 130.824 0 9.582 1.066 18.901 2.95 27.904l-209.025-31.788c7.536-202.060 98.011-603.591 98.011-603.591l650.886 113.984c-45.239 46.636-135.713 582.864-135.713 582.864zM327.385 503.709l276.938 41.051 8.23-30.819-276.923-41.063-8.245 30.831zM386.848 270.045l-10.060 35.15 340.838 49.995 10.070-35.149-340.848-49.996zM366.201 371.267l-13.441 34.878 439.032 59.52 13.447-34.875-439.038-59.523z" />
<glyph unicode="&#xe91d;" glyph-name="check-xz-false" d="M519.27 846.295c-226.243 0-409.61-183.398-409.61-409.61 0-226.232 183.368-409.59 409.61-409.59 226.222 0 409.59 183.357 409.59 409.59 0 226.222-183.368 409.61-409.59 409.61zM519.26 81.664c-196.035 0-354.97 158.956-354.97 355.031 0 196.055 158.935 355 354.97 355 196.065 0 355.021-158.956 355.021-355 0-196.076-158.956-355.031-355.021-355.031z" />
<glyph unicode="&#xe91e;" glyph-name="help" d="M511.627 1.431c-246.246 0-446.566 200.318-446.566 446.572 0 246.244 200.319 446.564 446.566 446.564 246.251 0 446.569-200.319 446.569-446.564 0-246.254-200.318-446.572-446.569-446.572v0zM511.627 830.773c-211.066 0-382.771-171.705-382.771-382.769 0-211.073 171.705-382.777 382.771-382.777 211.071 0 382.775 171.704 382.775 382.777-0.001 211.063-171.705 382.769-382.775 382.769v0zM511.893 128.675c-26.409 0-47.844 21.433-47.844 47.844s21.434 47.844 47.844 47.844c26.415 0 47.851-21.433 47.851-47.844s-21.435-47.844-47.851-47.844v0zM600.189 454.796c-27.751-27.723-56.394-56.368-56.394-82.104v-53.944c0-17.606-14.29-31.894-31.901-31.894-17.604 0-31.894 14.288-31.894 31.894v53.944c0 52.18 39.872 92.054 75.086 127.238 25.807 25.806 52.503 52.473 52.503 73.747 0 53.174-42.933 96.425-95.694 96.425-53.651 0-95.688-41.402-95.688-94.259 0-17.605-14.29-31.894-31.901-31.894-17.609 0-31.9 14.289-31.9 31.894 0 87.148 71.548 158.058 159.487 158.058 87.945 0 159.488-71.869 159.488-160.224 0.001-47.717-36.2-83.89-71.192-118.881v0z" />
<glyph unicode="&#xe91f;" glyph-name="user" d="M953.984-32.128v0 0c0-17.6-14.24-31.872-31.84-31.872s-31.872 14.272-31.872 31.872h-0.192c0 212.128-171.968 384.096-384.096 384.096s-384.064-171.968-384.064-384.096h-0.192c0-17.6-14.272-31.872-31.872-31.872s-31.872 14.272-31.872 31.872c0 196.576 126.784 363.168 302.912 423.488-85.376 49.984-142.912 142.432-142.912 248.512 0 159.072 128.928 288 288 288s288-128.928 288-288c0-106.080-57.504-198.496-142.912-248.512 176.16-60.32 302.912-226.912 302.912-423.488zM729.984 639.872c0 125.824-100.288 227.84-224 227.84s-224-102.016-224-227.84c0-115.392 84.416-210.496 193.824-225.536 10.016 0.672 20 1.536 30.176 1.536s20.16-0.864 30.176-1.536c109.44 15.040 193.824 110.144 193.824 225.536z" />
<glyph unicode="&#xe920;" glyph-name="star" d="M485.24 772.699c14.732 31.249 38.844 31.249 53.575 0l63.816-135.329c14.731-31.246 54.846-61.081 89.125-66.292l137.844-20.959c34.277-5.21 42.508-29.69 18.299-54.397l-101.898-103.948c-24.228-24.709-39.469-72.802-33.888-106.868l24.547-149.732c5.582-34.072-14.679-48.283-45.031-31.578l-124.418 68.464c-30.352 16.696-80.014 16.696-110.367 0l-124.425-68.464c-30.345-16.705-50.616-2.495-45.027 31.578l24.533 149.732c5.589 34.066-9.663 82.16-33.881 106.868l-101.88 103.946c-24.219 24.707-15.988 49.188 18.296 54.398l137.841 20.959c34.284 5.21 74.39 35.045 89.123 66.292l63.819 135.33z" />
<glyph unicode="&#xe921;" glyph-name="check-xz-true" d="M515 848.364c-226.243 0-409.61-183.398-409.61-409.61 0-226.232 183.368-409.6 409.61-409.6 226.222 0 409.6 183.357 409.6 409.6 0 226.212-183.368 409.61-409.6 409.61zM760.136 576.092l-245.934-325.192c-7.322-9.718-18.422-15.759-30.403-16.804-12.165-0.963-23.941 3.318-32.655 11.602l-176.763 169.001c-8.182 7.803-12.82 18.36-13.076 29.655-0.287 11.284 3.871 22.036 11.776 30.259 8.018 8.376 18.883 13.056 30.618 13.056 10.916 0 21.32-4.157 29.235-11.725l142.387-136.172 217.252 287.324c13.558 18.063 41.165 21.924 59.29 8.284 18.637-14.049 22.395-40.612 8.274-59.29z" />
<glyph unicode="&#xe922;" glyph-name="setup" horiz-adv-x="1025" d="M929.483 554.433l-69.316-40.37c3.907-21.193 6.444-42.849 6.444-65.175s-2.537-43.987-6.444-65.177l69.316-40.37c28.335-16.47 38.040-52.992 21.686-81.531l-59.205-103.419c-16.352-28.538-52.553-38.33-80.887-21.832l-70.014 40.779c-32.707-28.098-69.93-51.040-111.262-65.816v-50.66c0-32.969-26.498-59.696-59.203-59.696h-118.401c-32.705 0-59.231 26.727-59.231 59.696v50.66c-41.334 14.776-78.525 37.718-111.232 65.816l-70.044-40.779c-28.304-16.498-64.507-6.706-80.887 21.832l-59.172 103.419c-16.383 28.538-6.646 65.061 21.657 81.531l69.314 40.37c-3.875 21.191-6.442 42.851-6.442 65.177s2.567 43.983 6.442 65.175l-69.314 40.37c-28.303 16.47-38.040 52.991-21.657 81.529l59.171 103.423c16.38 28.535 52.583 38.33 80.887 21.83l70.044-40.747c32.706 28.071 69.9 51.040 111.232 65.788v50.66c0 32.969 26.525 59.698 59.231 59.698h118.403c32.705 0 59.203-26.729 59.203-59.698v-50.66c41.332-14.749 78.555-37.718 111.262-65.788l70.014 40.747c28.335 16.5 64.537 6.705 80.887-21.83l59.205-103.423c16.353-28.536 6.648-65.060-21.687-81.529zM885.118 631.97l-29.615 51.709c-8.161 14.283-26.289 19.15-40.458 10.931l-82.231-47.892c-41.767 47.482-98.175 81.558-162.212 94.644v65.702c0 16.498-13.262 29.849-29.614 29.849h-59.202c-16.352 0-29.587-13.353-29.587-29.849v-65.702c-64.067-13.086-120.475-47.162-162.216-94.644l-82.256 47.892c-14.136 8.219-32.269 3.351-40.431-10.931l-29.614-51.709c-8.165-14.255-3.325-32.531 10.846-40.781l82.58-48.065c-9.826-29.703-15.713-61.213-15.713-94.239 0-33.028 5.888-64.538 15.713-94.239l-82.578-48.068c-14.17-8.249-19.006-26.498-10.846-40.779l29.614-51.709c8.163-14.285 26.293-19.152 40.431-10.903l82.229 47.863c41.769-47.484 98.177-81.531 162.244-94.646v-65.7c0-16.47 13.236-29.849 29.587-29.849h59.202c16.352 0 29.614 13.379 29.614 29.849v65.7c64.040 13.115 120.44 47.162 162.212 94.646l82.231-47.863c14.169-8.249 32.3-3.382 40.458 10.903l29.615 51.709c8.163 14.281 3.294 32.529-10.846 40.779l-82.608 48.068c9.852 29.701 15.742 61.211 15.742 94.239 0 33.025-5.89 64.536-15.742 94.239l82.608 48.066c14.136 8.248 19.007 26.525 10.843 40.78zM511.402 299.64c-81.762 0-148.022 66.81-148.022 149.244 0 82.432 66.258 149.24 148.022 149.24 81.732 0 147.986-66.808 147.986-149.24 0-82.434-66.254-149.244-147.986-149.244zM511.402 538.429c-49.059 0-88.816-40.079-88.816-89.544s39.757-89.546 88.816-89.546c49.056 0 88.816 40.081 88.816 89.546s-39.761 89.544-88.816 89.544z" />
<glyph unicode="&#xe923;" glyph-name="close" d="M634.048 449.046l329.923 329.923c33.653 33.652 33.653 88.22 0 121.872s-88.22 33.653-121.872 0l-329.922-329.922-329.919 329.922c-33.653 33.653-88.22 33.653-121.872-0.008-33.661-33.653-33.661-88.21-0.008-121.864l329.925-329.925-329.925-329.925c-33.652-33.653-33.652-88.22 0-121.872s88.22-33.652 121.872 0l329.925 329.925 329.925-329.925c33.652-33.652 88.22-33.652 121.872 0s33.652 88.22 0 121.872l-329.923 329.927z" />
<glyph unicode="&#xe924;" glyph-name="check-car" d="M939.901 305.067c-10.785 0-19.509 8.725-19.509 19.509 0 225.906-183.8 409.706-409.706 409.706s-409.707-183.799-409.707-409.705c0-10.785-8.727-19.509-19.509-19.509-10.785 0-19.509 8.725-19.509 19.509 0 247.435 201.288 448.726 448.726 448.726 247.435 0 448.726-201.29 448.726-448.726-0.001-10.786-8.728-19.51-19.51-19.51zM826.416 405.357l-5.791 21.62c-1.935 7.24-9.46 13.156-16.681 13.156h-63.629l-54.823 67.418c-2.909 3.588-9.269 10.367-21.241 11.884-104.071 5.966-206.482 6.101-307.126 0-11.968-1.516-18.338-8.296-21.241-11.884l-54.827-67.418h-63.627c-7.182 0-14.744-5.916-16.685-13.156l-5.785-21.62c-0.762-2.841 1.223-4.056 3.85-5.256l36.235-16.517-14.724-18.084c-8.949-11.363-13.395-26.481-13.056-45.579v-181.261c0-7.36 6.060-13.468 13.468-13.468h98.575c7.412 0 13.466 6.060 13.466 13.468v17.992h355.824v-17.992c0-7.392 6.060-13.468 13.468-13.468h98.571c7.412 0 13.472 6.060 13.472 13.468v181.262c0.34 19.098-4.107 34.216-13.058 45.579l-14.718 18.084 36.231 16.517c2.637 1.199 4.623 2.371 3.853 5.255zM359.406 301.653c0-3.202-2.643-5.74-5.841-5.632l-87.845 3.286c-12.837 0.486-23.367 11.406-23.367 24.278v18.134c0 4.827 3.98 9.033 8.756 8.438l87.859-10.887c11.165-1.381 20.438-10.005 20.438-21.242v-16.375zM650.187 455.813c-1.971 20.891-20.671 31.339-41.54 31.339-20.871 0-39.579-10.448-41.54-31.339-1.018-10.92 1.429-36.721 6.854-46.494 1.701-3.067 4.208-6.075 7.287-8.815-92.96 2.212-175.198 0.519-288.259-5.858-5.634-0.788-6.335 3.118-4.231 6.075l66.979 83.416c2.944 3.621 6.159 5.607 10.885 6.177 118.901 8.053 169.693 7.149 288.143 0 4.717-0.57 7.941-2.556 10.887-6.177l66.982-83.416c2.103-2.957 1.395-6.863-4.244-6.075-33.81 1.735-64.858 3.151-94.266 4.231 3.964 3.151 7.166 6.764 9.211 10.442 5.424 9.773 7.869 35.574 6.853 46.494zM779.027 323.583c0-12.872-10.511-23.792-23.359-24.278l-87.849-3.286c-3.217-0.125-5.845 2.431-5.845 5.632v16.375c0 11.245 9.289 19.861 20.449 21.242l87.849 10.887c4.772 0.595 8.756-3.611 8.756-8.438v-18.134z" />
<glyph unicode="&#xe925;" glyph-name="gift" d="M836.346 702.278h-28.427c14.415 24.442 20.741 47.755 18.72 69.379-1.677 18.098-10.255 43.983-41.686 64.612-26.060 17.143-59.572 21.348-96.752 12.060-60.292-15.138-131.649-67.18-178.567-130.073-46.946 62.892-118.246 114.936-178.537 130.073-37.21 9.349-70.751 5.114-96.808-12.060-31.404-20.629-39.984-46.513-41.66-64.612-2.021-21.625 4.247-44.937 18.72-69.379h-28.427c-43.043 0-78.073-35.056-78.073-78.132v-100.636c0-34.075 22.475-64.191 54.991-74.304-3.090-8.551-4.708-17.39-4.708-26.347v-301.923c0-43.046 35.070-78.117 78.117-78.117h552.859c43.044 0 78.059 35.070 78.059 78.117v301.924c0 9.014-1.558 17.882-4.65 26.377 32.468 10.17 54.89 40.286 54.89 74.275v100.609c-0.001 43.073-35.015 78.158-78.061 78.158zM786.106 98.459h-248.68v346.905h248.681c12.394 0 22.445-10.11 22.445-22.505v-301.923c-0.001-12.395-10.052-22.477-22.446-22.477zM568.049 702.278c39.55 45.619 91.462 81.468 133.614 92.043 21.897 5.488 39.808 3.986 52.78-4.566 13.782-9.055 16.234-17.129 16.785-23.227 2.193-22.359-21.784-52.505-33.108-64.25h-170.071zM858.763 624.119v-100.609c0-12.394-10.024-22.474-22.418-22.474h-298.919v145.573h298.919c12.393 0 22.418-10.098 22.418-22.49zM481.813 445.364v-346.905h-248.565c-12.424 0-22.478 10.083-22.478 22.477v301.923c0 12.394 10.054 22.505 22.478 22.505h248.565zM248.040 766.529c0.547 6.098 3.033 14.173 16.757 23.227 12.882 8.552 30.794 10.128 52.81 4.566 41.918-10.515 93.774-46.368 133.41-92.043h-169.928c-10.14 10.27-35.274 41.355-33.049 64.25zM160.446 624.119c0 12.391 10.054 22.49 22.475 22.49h298.891v-145.573h-298.891c-12.421 0-22.475 10.080-22.475 22.474v100.609z" />
<glyph unicode="&#xe926;" glyph-name="delete" d="M478.647 669.733c0 20.041 16.274 36.462 36.498 36.462v0c19.895 0 36.133-16.421 36.133-36.462v-551.095c0-19.931-16.238-36.352-36.133-36.352v0c-20.224 0-36.498 16.421-36.498 36.352v551.095zM307.419 669.733c0 20.041 16.421 36.462 36.571 36.462v0c19.968 0 36.133-16.421 36.133-36.462v-551.095c0-19.931-16.165-36.352-36.133-36.352v0c-20.151 0-36.571 16.421-36.571 36.352v551.095zM649.801 669.733c0 20.041 16.347 36.462 36.425 36.462v0c19.858 0 36.279-16.421 36.279-36.462v-551.095c0-19.931-16.421-36.352-36.279-36.352v0c-20.078 0-36.425 16.421-36.425 36.352v551.095zM951.223 848.567h-195.291v45.605c0 35.73-32 63.415-72.777 63.415h-336.091c-40.777 0-72.631-27.867-72.631-63.415v-45.605h-201.728c-20.005 0-36.133-16.201-36.133-36.389 0-20.078 16.128-36.352 36.133-36.352h76.507v-766.464c0-39.205 32.731-70.912 72.631-70.912h586.203c39.936 0 72.631 31.707 72.631 70.912v766.464h70.51c20.151 0 36.206 16.274 36.206 36.352 0.037 20.187-16.018 36.389-36.169 36.389v0zM347.026 884.809h336.091v-36.242h-336.091v36.242zM769.938 11.008c0 0-470.418-1.646-510.245-1.646s-37.815 41.143-37.815 41.143v690.395c0 42.24 35.803 34.926 35.803 34.926h507.575c0 0 42.789 2.597 42.789-34.926 0-37.339 0.658-658.542 0.658-693.76 0-35.365-38.766-36.133-38.766-36.133v0z" />
<glyph unicode="&#xe927;" glyph-name="check-false" d="M824.852 828.396c44.012 0 80.005-36.035 80.005-80.077v-600.627c0-44.012-35.994-79.995-80.005-79.995h-600.607c-44.083 0-80.118 35.983-80.118 79.995v600.627c0 44.052 36.035 80.077 80.118 80.077h600.607zM831.744 857.6h-614.41c-55.276 0-102.4-47.114-102.4-102.39v-614.41c0-57.293 47.124-102.4 102.4-102.4h614.41c57.293 0 102.39 47.176 102.39 102.4v614.41c0 55.276-45.107 102.39-102.39 102.39v0 0z" />
<glyph unicode="&#xe928;" glyph-name="angle-right" d="M321.118 894.388l-64.032-63.397 380.993-383.606-384.196-380.377 63.49-63.925 448.221 443.779z" />
<glyph unicode="&#xe929;" glyph-name="angle-up" d="M65.612 257.118l63.397-64.032 383.606 380.993 380.377-384.196 63.925 63.49-443.779 448.221z" />
<glyph unicode="&#xe92a;" glyph-name="angle-left" d="M702.882 1.612l64.032 63.397-380.993 383.606 384.196 380.377-63.49 63.925-448.221-443.779z" />
<glyph unicode="&#xe92b;" glyph-name="angle-down" d="M958.388 638.882l-63.397 64.032-383.606-380.993-380.377 384.196-63.925-63.49 443.779-448.221z" />
<glyph unicode="&#xe92c;" glyph-name="update" d="M224.109 439.984l38.284-40.512 217.543 221.294v-459.12h63.957l-0.085 459.462 216.024-219.829 39.717 41.433-287.548 288.231zM512 958.079c-281.709 0-510.079-228.37-510.079-510.079s228.37-510.079 510.079-510.079 510.079 228.37 510.079 510.079-228.37 510.079-510.079 510.079zM512 0.326c-247.243 0-447.674 200.431-447.674 447.674s200.43 447.674 447.674 447.674 447.674-200.431 447.674-447.674-200.431-447.674-447.674-447.674z" />
<glyph unicode="&#xe92d;" glyph-name="back-left" d="M520.016 160.109l40.512 38.284-221.294 217.543h459.12v63.957l-459.462-0.085 219.829 216.024-41.433 39.717-288.231-287.548zM1.921 448c0-281.709 228.37-510.079 510.079-510.079s510.079 228.37 510.079 510.079-228.37 510.079-510.079 510.079-510.079-228.37-510.079-510.079zM959.674 448c0-247.243-200.431-447.674-447.674-447.674s-447.674 200.43-447.674 447.674 200.431 447.674 447.674 447.674 447.674-200.431 447.674-447.674z" />
<glyph unicode="&#xe92e;" glyph-name="aboutus" d="M499.718 549.464c30.742 0 55.893 25.152 55.893 55.893s-25.152 55.893-55.893 55.893c-30.742 0-55.893-25.152-55.893-55.893 0.027-30.742 25.179-55.893 55.893-55.893zM499.718 214.185c30.742 0 55.893 25.152 55.893 55.893v167.653c0 30.742-25.152 55.893-55.893 55.893s-55.893-25.152-55.893-55.893v-167.653c0.027-30.742 25.179-55.893 55.893-55.893zM499.718-9.335c246.423 0 447.039 200.617 447.039 447.039s-200.617 447.039-447.039 447.039-447.039-200.617-447.039-447.039 200.617-447.039 447.039-447.039zM499.718 800.899c200.328 0 363.231-162.894 363.231-363.231s-162.894-363.231-363.231-363.231-363.195 162.921-363.195 363.258 162.867 363.204 363.195 363.204z" />
<glyph unicode="&#xe92f;" glyph-name="money" d="M677.56 465.203c18.289 0 33.096 14.848 33.096 33.137s-14.828 33.116-33.096 33.116h-85.668l85.545 85.627c12.882 12.923 12.923 33.874 0 46.817-12.923 12.923-33.915 12.923-46.838 0l-121.385-121.528-121.385 121.528c-12.902 12.923-33.915 12.923-46.817 0-12.923-12.943-12.902-33.894 0-46.817l85.504-85.627h-80.077c-18.289 0-33.116-14.828-33.116-33.116s14.828-33.137 33.116-33.137h132.424v-66.232h-132.424c-18.289 0-33.116-14.828-33.116-33.116 0-18.248 14.828-33.096 33.116-33.096h132.424v-77.23c0-18.309 14.807-33.116 33.116-33.116 18.289 0 33.116 14.828 33.116 33.116v77.23h132.444c18.289 0 33.096 14.868 33.096 33.096 0 18.309-14.828 33.116-33.096 33.116h-132.444v66.232h132.465zM511.98 944.64c-274.268 0-496.62-222.351-496.62-496.64s222.351-496.64 496.62-496.64c274.33 0 496.64 222.351 496.64 496.64s-222.31 496.64-496.64 496.64zM511.98 20.296c-236.196 0-427.704 191.468-427.704 427.663s191.508 427.704 427.704 427.704c236.237 0 427.704-191.508 427.704-427.704s-191.468-427.663-427.704-427.663z" />
<glyph unicode="&#xe930;" glyph-name="mark1" d="M512-64c-282.761 0-512 229.239-512 512s229.239 512 512 512c282.761 0 512-229.239 512-512s-229.239-512-512-512zM512 891.733c-245.077 0-443.733-198.656-443.733-443.733s198.656-443.733 443.733-443.733c245.077 0 443.733 198.656 443.733 443.733s-198.656 443.733-443.733 443.733zM512 140.8c-37.717 0-68.267 30.549-68.267 68.267s30.549 68.267 68.267 68.267c37.717 0 68.267-30.549 68.267-68.267s-30.549-68.267-68.267-68.267zM512 345.6c-18.842 0-34.133 30.549-34.133 68.267 0 0-34.133 307.2-34.133 307.2 0 37.717 30.549 68.267 68.267 68.267s68.267-30.549 68.267-68.267c0 0-34.133-307.2-34.133-307.2 0-37.717-15.292-68.267-34.133-68.267z" />
<glyph unicode="&#xe931;" glyph-name="find" d="M514.133 917.333c-258.133 0-465.067-209.067-465.067-465.067s209.067-462.933 462.933-462.933c258.133 0 467.2 206.933 467.2 462.933s-209.067 465.067-465.067 465.067zM512 53.333c-219.733 0-398.933 179.2-398.933 398.933 0 221.867 179.2 401.067 401.067 401.067s401.067-181.333 401.067-401.067c0-219.733-181.333-398.933-403.2-398.933zM774.4 714.667c-8.533 10.667-23.467 12.8-36.267 6.4l-322.133-151.467c-6.4-2.133-12.8-8.533-14.933-14.933l-155.733-326.4c-6.4-12.8-4.267-27.733 6.4-36.267 6.4-6.4 14.933-8.533 23.467-8.533 4.267 0 8.533 2.133 12.8 4.267l320 153.6c6.4 2.133 10.667 8.533 14.933 14.933l157.867 324.267c6.4 8.533 4.267 23.467-6.4 34.133zM514.133 388.267c-36.267 0-64 27.733-64 64s27.733 64 64 64c34.133 0 64-27.733 64-64s-29.867-64-64-64z" />
<glyph unicode="&#xe932;" glyph-name="dingdan" d="M818.603 866.766h-55.879c-15.456 0-33.289-9.51-33.289-24.967s17.833-30.912 33.289-30.912h55.879c33.289 0 55.879-22.59 55.879-55.879v-643.191c0-33.289-22.59-55.879-55.879-55.879h-601.582c-33.289 0-70.143 22.59-70.143 55.879v643.19c0 33.289 22.59 55.879 55.879 55.879h70.143c15.456 0 21.401 15.457 21.401 30.912 0 15.457-5.945 24.967-21.401 24.967h-70.142c-78.469 0.001-111.758-48.744-111.758-112.945v-636.058c0-68.955 41.611-117.699 117.699-117.699h603.957c76.093 0 117.704 40.423 117.704 117.699v636.058c0 64.201-39.234 112.946-111.757 112.946v0zM272.9 614.718c0-15.456 13.081-28.531 28.532-28.531h419.68c15.456 0 28.536 13.075 28.536 28.531s-13.080 28.536-28.536 28.536h-419.68c-15.451 0-28.532-13.079-28.532-28.536v0zM719.924 488.696h-418.492c-15.451 0-28.532-13.079-28.532-28.536 0-15.452 13.081-28.531 28.532-28.531h419.68c15.456 0 28.536 13.079 28.536 28.531-1.188 16.645-14.268 28.536-29.724 28.536v0zM719.924 321.064h-418.492c-15.451 0-28.532-13.080-28.532-28.537 0-15.455 13.081-28.53 28.532-28.53h419.68c15.456 0 28.536 13.075 28.536 28.53-1.188 16.646-14.268 28.537-29.724 28.537v0zM414.378 796.619h194.98c22.591 0 41.611 22.59 41.611 48.746 0 26.154-19.021 48.745-42.799 48.745h-193.792c-23.778 0-42.799-22.59-42.799-48.745s19.021-48.746 42.799-48.746v0z" />
<glyph unicode="&#xe933;" glyph-name="check-true" d="M782.162 857.6h-614.4c-55.276 0-102.4-47.114-102.4-102.39v-614.41c0-57.303 47.124-102.4 102.4-102.4h614.4c57.303 0 102.4 47.176 102.4 102.4v614.41c0 55.276-45.097 102.39-102.4 102.39zM744.632 599.060l-270.541-357.724c-8.059-10.691-20.265-17.326-33.444-18.483-13.384-1.055-26.337 3.666-35.922 12.759l-194.437 185.917c-8.991 8.561-14.1 20.204-14.377 32.625-0.307 12.401 4.26 24.238 12.954 33.28 8.817 9.216 20.767 14.377 33.679 14.377 12.012 0 23.439-4.577 32.164-12.892l156.621-149.78 238.971 316.037c14.92 19.866 45.281 24.115 65.208 9.114 20.511-15.462 24.637-44.677 9.124-65.229z" />
<glyph unicode="&#xe934;" glyph-name="logout" d="M185.584 715.255h415.032v118.32h-533.728v-771.15h533.728v118.697h-415.032v534.133zM957.11 448.187l-298.595 267.068v-178.045h-356.089v-178.044h356.089v-178.044l298.595 267.066z" />
<glyph unicode="&#xe935;" glyph-name="password" d="M809.541 468.807h-552.403v148.725c0 128.862 126.089 233.705 254.955 233.705s233.706-126.084 233.706-254.954c0-11.74 9.51-21.241 21.245-21.241 11.744 0 21.247 9.505 21.247 21.241 0 152.307-123.905 297.449-276.196 297.449-152.295 0-297.443-123.897-297.443-276.2v-148.725c-46.875 0-84.986-38.111-84.986-84.985v-297.447c0-46.87 38.111-84.977 84.986-84.977h594.889c46.873 0 84.985 38.107 84.985 84.977v297.447c-0.002 46.878-38.118 84.985-84.983 84.985v0 0zM852.032 86.375c0-23.426-19.071-42.488-42.49-42.488h-594.894c-23.423 0-42.495 19.062-42.495 42.488v297.447c0 23.43 19.071 42.491 42.495 42.491h594.889c23.423 0 42.498-19.062 42.498-42.491v-297.447h-0.003zM512.093 341.329c-23.471 0-42.49-19.024-42.49-42.487 0-15.726 8.549-29.449 21.241-36.793v-69.436c0-11.739 9.51-63.74 21.249-63.74 11.736 0 21.246 52 21.246 63.74v69.436c12.692 7.344 21.25 21.067 21.25 36.793-0.001 23.462-19.025 42.487-42.496 42.487v0 0z" />
<glyph unicode="&#xe936;" glyph-name="my-car" d="M1015.768 183.552c-1.184-8.048-3.184-15.891-6.168-21.976-5.381-10.79-10.563-11.778-30.885-10.79-26.312 1.173-63.974 0-103.829-1.581 0-10.79 0.4-15.891 0.4-15.891 2.587-29.63 16.144-30.611 21.512-30.611h85.694c7.571 0 14.554 0 19.928 3.526 6.974 4.51 9.966 17.661 12.56 40.626 0.403 3.331 0.594 7.658 0.787 12.757v0.198c0 1.563 0.21 3.526 0.21 5.688v2.166c-0.010 5.285-0.010 11.174-0.21 15.888v0 0 0zM7.843 183.552c1.197-8.048 3.181-15.891 6.179-21.976 5.37-10.79 10.552-11.778 30.877-10.79 26.31 1.173 63.973 0 103.827-1.581 0-10.79-0.4-15.891-0.4-15.891-2.597-29.63-16.146-30.611-21.523-30.611h-85.683c-7.573 0-13.952 0-19.933 3.526-7.165 4.125-9.965 17.661-12.547 40.626-0.403 3.331-0.603 7.658-0.797 12.757v0.198c0 1.563-0.2 3.526-0.2 5.688v2.166c0.2 5.285 0.2 11.174 0.2 15.888v0 0 0zM1022.147 368.611c0 60.25-7.966 119.125-11.157 125.598-2.39 4.714-17.731 17.070-52.606 40.43-35.275 23.747-34.475 20.214-40.846 35.714 5.774 1.766 11.354 5.104 14.741 5.494 7.568 0.782 7.974-6.278 23.712-6.278 15.747 0 49.813 4.126 56.797 10.992 6.974 6.87 9.166 9.219 9.166 15.304 0 6.088-3.59 18.643-10.366 26.107-6.774 7.453-35.669 11.189-52.61 13.346-16.941 2.155-19.328 0-23.712-2.749-6.974-4.315-7.371-43.765-7.371-43.765l-16.547-0.394c-10.754 26.098-25.702 78.69-49.016 120.101-25.509 45.141-52.213 59.274-63.368 62.795-10.963 3.338-20.925 5.698-95.656 13.158-76.318 7.845-137.101 8.834-191.302 8.834-54.208 0-114.979-1.182-191.302-8.834-74.733-7.654-84.693-9.814-95.653-13.158-10.966-3.333-37.866-17.654-63.368-62.795-23.317-41.411-38.259-94.003-49.026-120.101l-16.541 0.394c0 0-0.195 39.442-7.37 43.765-4.395 2.749-6.778 5.099-23.717 2.749-16.936-2.362-45.83-5.893-52.608-13.346-6.776-7.464-10.366-20.021-10.366-26.107s2.2-8.63 9.166-15.304c6.986-6.866 41.054-10.992 56.8-10.992 15.742 0 16.136 7.061 23.71 6.278 3.387-0.389 9.168-3.726 14.747-5.494-6.571-15.501-5.579-11.966-40.853-35.714-34.874-23.549-50.416-35.715-52.606-40.43-3.197-6.474-11.162-65.36-11.162-125.598 0-60.245 4.384-114.419 4.384-133.64 0-8.053 0-22.181 1.795-35.725 1.198-8.037 2.986-15.89 6.179-21.976 5.368-10.79 10.358-11.773 30.89-10.79 26.301 1.182 64.358 0 103.622-1.571 26.296-0.976 53.205-1.966 77.117-2.555 59.782-1.171 42.248 8.642 67.741 8.246 25.518-0.39 126.155-4.507 218.218-4.507 92.058 0 192.891 4.117 218.21 4.507 25.502 0.395 7.966-9.419 67.747-8.246 23.909 0.397 50.813 1.573 77.122 2.555 39.253 1.376 77.512 2.755 103.619 1.571 20.525-0.982 25.512 0 30.888 10.79 2.99 6.088 4.987 13.939 6.184 21.976 1.978 13.544 1.787 27.672 1.787 35.725 0.403 19.026 4.787 73.395 4.787 133.64v0 0 0zM173.642 665.731c9.558 21.984 38.258 66.134 52.203 73.987 3.39 1.962 33.077 11.184 107.406 16.096 68.355 4.514 143.886 6.28 178.947 6.28 35.078 0 110.606-1.766 178.957-6.28 74.128-4.91 104.222-13.939 107.403-16.096 17.938-12.168 42.65-52.003 52.219-73.987 9.566-21.987 22.312-65.157 19.925-71.046-2.397-5.883 2.387-8.832-29.891-6.272-32.091 2.35-233.557 4.904-328.406 4.904-94.656 0-296.126-2.555-328.411-4.904-32.28-2.365-27.499 0.389-29.891 6.272-2.781 5.89 9.965 48.875 19.539 71.046v0 0 0zM246.97 420.032c-14.347-3.533-22.92-11.19-40.853-10.992-17.933 0-66.355 8.046-76.723 8.442-10.366 0.389-19.533-6.87-24.915-8.246-5.374-1.366-15.928 2.358-31.874 7.264-15.946 4.902-25.315 3.533-30.486 24.918-5.386 21.192 0 51.616 0 51.616 34.469 1.57 67.742-1.568 130.123-18.838 62.37-17.262 97.045-50.437 97.045-50.437s-7.974-0.195-22.317-3.726v0 0 0zM715.666 265.382c-28.501-3.722-147.872-4.706-203.653-4.706-55.798 0-175.17 1.171-203.669 4.706-29.093 3.731-66.954 38.075-40.853 65.347 35.282 37.098 28.701 35.92 108.81 46.126 69.347 8.827 121.952 9.219 135.706 9.219 13.547 0 66.354-0.581 135.701-9.219 80.109-10.206 73.538-9.026 108.81-46.126 26.106-27.272-11.757-61.616-40.851-65.347v0 0 0zM981.898 441.224c-5.381-21.192-14.547-20.021-30.491-24.925-15.938-4.909-26.501-8.432-31.882-7.259-5.378 1.178-14.547 8.442-24.912 8.24-10.36-0.386-58.787-8.438-76.718-8.438-17.928 0-26.498 7.458-40.853 10.994-14.347 3.528-22.315 3.528-22.315 3.528s34.475 33.37 97.050 50.438c62.371 17.27 95.653 20.408 130.122 18.834 0 0.398 5.381-30.026 0-51.411v0 0 0z" />
<glyph unicode="&#xe937;" glyph-name="load" d="M509.092 29.020c-20.869 0-41.82 1.556-62.802 4.762-55.020 8.325-106.783 27.116-153.784 55.839-45.445 27.761-84.521 63.601-116.244 106.404-31.724 42.885-54.477 90.583-67.604 141.916-13.599 53.125-16.22 107.817-7.844 162.458 8.397 54.641 27.32 106.004 56.279 152.719 27.924 45.097 63.959 83.927 107.121 115.436 43.121 31.488 91.197 54.077 142.879 67.123 53.524 13.476 108.544 16.118 163.584 7.782 71.762-10.885 139.52-40.376 195.84-85.299 54.559-43.602 97.444-100.68 123.924-165.12 5.919-14.397-1.044-30.843-15.524-36.721-14.561-5.898-31.119 1.014-37.038 15.442-47.043 114.565-152.719 197.325-275.763 215.962-193.864 29.379-375.624-103.322-405.176-295.844-29.563-192.502 104.079-372.982 297.882-402.34 193.864-29.44 375.624 103.281 405.207 295.844 2.335 15.36 16.814 25.917 32.328 23.603 15.442-2.355 26.092-16.722 23.757-32.164-8.397-54.641-27.361-106.004-56.238-152.719-27.976-45.076-64-83.917-107.121-115.436-43.131-31.488-91.197-54.077-142.879-67.123-33.167-8.325-66.867-12.524-100.782-12.524v0z" />
<glyph unicode="&#xe938;" glyph-name="uniE931" d="M939.54 473.672c-13.711 49.244-44.186 84.972-89.815 107.837-3.543 1.782-7.004 22.497-8.11 29.788-11.069 71.875-41.585 134.451-92.969 185.743-80.722 80.568-178.565 113.203-291.492 97.812-79.114-10.762-145.756-47.073-199.741-105.8-51.22-55.685-80.404-121.559-87.501-197.007-0.573-6.042-2.918-9.103-8.356-11.837-66.468-33.126-103.434-105.943-91.279-179.046 11.479-68.936 64.154-123.75 132.669-138.056 11.766-2.427 23.593-3.942 36.362-2.97 0 0.092 0 0.184 0 0.266 0 8.632 0.174 201.544-0.072 296.448-0.102 41.359 7.813 80.804 26.245 117.914 55.040 110.909 178.913 168.192 300.278 141.21 116.326-25.846 208.435-127.928 207.319-259.85-0.788-93.286-0.143-186.552-0.287-279.808-0.020-5.263-0.973-10.711-2.662-15.677-11.622-33.905-29.051-64.676-51.538-92.58-43.387-53.955-99.144-90.808-162.365-117.279-1.864-0.799-5.007-0.031-6.912 1.085-7.311 4.413-15.002 6.932-23.603 6.84-12.974-0.092-25.917 0-38.861-0.010-22.405-0.082-40.274-18.258-40.274-40.909 0-22.548 17.92-40.714 40.325-40.796 13.322-0.061 26.644-0.051 39.987 0 17.91 0.051 33.956 11.981 38.574 29.43 1.208 4.547 3.4 6.656 7.506 8.366 41.943 17.644 81.183 40.008 116.644 68.762 57.61 46.705 99.451 104.397 121.528 175.677 1.495 4.68 4.567 5.13 8.069 6.031 90.993 23.583 145.623 117.811 120.33 208.415z" />
<glyph unicode="&#xe939;" glyph-name="bianji" d="M324.538 393.965c-0.672-0.87-1.35-1.747-1.638-2.835l-51.341-188.256c-2.989-10.97 0.051-22.803 8.192-31.136 6.074-5.888 14.074-9.171 22.56-9.171 2.848 0 5.645 0.365 8.41 1.088l186.957 51.002c0.288 0 0.429-0.307 0.672-0.307 2.163 0 4.243 0.838 5.83 2.426l499.93 499.866c14.848 14.848 22.982 35.091 22.982 57.171 0 24.941-10.573 49.894-29.114 68.403l-47.206 47.283c-18.509 18.56-43.539 29.165-68.416 29.165-22.074 0-42.323-8.147-57.235-22.944l-499.821-500.064c-0.57-0.454-0.378-1.152-0.762-1.69zM955.251 765.562l-49.728-49.606-80.506 81.754 48.947 48.973c7.738 7.763 22.752 6.611 31.616-2.259l47.238-47.29c4.922-4.96 7.75-11.52 7.75-17.933 0.006-5.344-1.888-10.17-5.318-13.638zM413.421 386.080l360.742 360.781 80.525-81.85-360.045-360.051-81.222 81.12zM347.718 239.814l26.029 95.731 69.562-69.523-95.59-26.208zM986.867 567.494c-18.906 0-34.426-15.373-34.515-34.56v-466.003c0-24.48-19.866-44.32-44.333-44.32h-788.301c-24.435 0-44.39 19.84-44.39 44.32v760.576c0 24.474 19.91 44.333 44.39 44.333h507.725c18.995 0 34.464 15.475 34.464 34.515 0 18.995-15.469 34.445-34.464 34.445h-512.973c-59.629 0-108.070-48.422-108.070-108.045v-771.117c0-59.597 48.442-108.026 108.070-108.026h798.81c59.603 0 108.102 48.429 108.102 108.026v471.488c-0.109 18.995-15.629 34.368-34.515 34.368z" />
<glyph unicode="&#xe93a;" glyph-name="angle-big-right" d="M665.119 103.178l325.417 325.427c0 0 9.943 7.137 9.943 23.153 0 16.026-9.574 23.306-9.574 23.306l-325.786 325.796c-12.739 12.749-33.321 12.749-46.060 0-12.739-12.708-12.739-33.321 0-46.060l270.705-270.705h-834.355c-17.848 0-32.317-14.49-32.317-32.338 0-17.838 14.469-32.328 32.317-32.328h833.894l-270.172-270.193c-12.739-12.667-12.739-33.321 0-46.060 12.667-12.739 33.321-12.739 45.988 0v0z" />
</font>
</defs>
</svg>
